<svg width="504" height="139" viewBox="0 0 504 139" fill="none" xmlns="http://www.w3.org/2000/svg">
<path d="M104.211 101.839C92.7921 114.997 71.9041 130.894 57.1169 135.974C51.3299 134.608 45.7214 132.537 40.4664 129.738C20.2884 118.985 6.38617 97.2366 5.0596 74.3528C3.72775 51.469 15.0244 28.246 33.8182 15.2138C44.1862 8.02806 56.6419 4.08327 69.2029 3.54691C72.0726 3.42713 74.9936 3.43986 77.9035 3.64921C82.5134 3.98523 86.0552 7.89239 86.0266 12.5299L85.978 20.3845C85.9463 25.4566 81.6739 29.4634 76.6255 29.156C75.6275 29.0966 74.5973 29.0585 73.5513 29.0521C63.9362 28.9922 52.5259 31.3428 45.7431 38.0632C33.9181 47.6673 28.0941 64.1514 31.2502 79.0804C34.4068 94.0094 46.3998 106.704 61.0939 110.665C68.8843 112.765 77.1644 112.541 85.0773 110.995C91.4301 109.752 97.7835 107.571 102.665 103.314C103.207 102.845 103.722 102.35 104.211 101.839Z" fill="url(#paint0_linear_671_10122)"/>
<path d="M180.738 10.7852L180.662 22.9646C180.636 26.4308 177.971 29.2869 174.53 29.5779C167.896 30.1355 161.356 31.7217 156.427 36.0423C151.752 40.1313 149.216 46.1256 147.335 52.0552C140.502 73.5997 139.89 98.0984 125.844 115.777C115.812 128.397 100.04 135.517 84.036 137.442C83.5336 137.502 83.0317 137.557 82.5293 137.607C74.0501 138.455 65.4049 137.935 57.1169 135.975C71.9041 130.894 92.7921 114.997 104.211 101.84C105.37 100.649 106.409 99.3571 107.342 97.9903V97.985C110.759 92.9712 112.799 86.9207 114.342 80.9837C117.199 70.0142 118.823 58.7406 121.954 47.8528C125.091 36.9597 129.919 26.2251 138.077 18.379C147.479 9.33242 160.476 5.01452 173.578 4.07324C177.457 3.79552 180.761 6.87958 180.737 10.7857L180.738 10.7852Z" fill="url(#paint1_linear_671_10122)"/>
<path d="M187.725 109.926L188.95 110.589C190.475 111.416 190.799 113.503 189.562 114.721C188.263 116 186.786 117.092 185.131 117.998C182.445 119.467 179.535 120.201 176.401 120.201C172.855 120.201 169.623 119.287 166.708 117.457C163.791 115.627 161.466 113.17 159.733 110.091C157.997 107.01 157.131 103.602 157.131 99.8643C157.131 97.0293 157.632 94.3799 158.633 91.9185C159.636 89.4572 161.017 87.2922 162.776 85.4229C164.537 83.5551 166.586 82.0923 168.924 81.035C171.261 79.9776 173.754 79.4492 176.401 79.4492C179.534 79.4492 182.445 80.1838 185.13 81.6524C186.795 82.5646 188.28 83.6696 189.584 84.9676C190.812 86.1892 190.486 88.2679 188.965 89.0926L187.746 89.753C186.757 90.2888 185.551 90.107 184.73 89.3369C183.794 88.4592 182.751 87.7411 181.602 87.1825C179.907 86.3578 178.172 85.9449 176.4 85.9449C174.01 85.9449 171.845 86.583 169.906 87.8587C167.966 89.1344 166.43 90.8294 165.299 92.9425C164.169 95.0567 163.605 97.3643 163.605 99.8638C163.605 102.363 164.176 104.665 165.319 106.765C166.462 108.866 168.003 110.549 169.944 111.811C171.883 113.073 174.035 113.705 176.399 113.705C178.301 113.705 180.085 113.268 181.756 112.391C182.855 111.815 183.843 111.126 184.719 110.326C185.545 109.571 186.739 109.392 187.723 109.925L187.725 109.926Z" fill="#020F00"/>
<path d="M198.022 116.594V63.8031C198.022 62.3657 199.184 61.2008 200.616 61.2008H201.903C203.336 61.2008 204.497 62.3657 204.497 63.8031V116.594C204.497 118.032 203.336 119.197 201.903 119.197H200.616C199.184 119.197 198.022 118.032 198.022 116.594Z" fill="#020F00"/>
<path d="M212.204 104.504V83.1349C212.204 81.6975 213.365 80.5326 214.798 80.5326H216.085C217.518 80.5326 218.679 81.6975 218.679 83.1349V103.074C218.679 105.032 219.154 106.811 220.105 108.41C221.055 110.008 222.335 111.276 223.941 112.218C225.546 113.158 227.312 113.628 229.239 113.628C231.192 113.628 232.959 113.158 234.539 112.218C236.119 111.276 237.385 110.008 238.334 108.41C239.286 106.811 239.761 105.032 239.761 103.074V83.1349C239.761 81.6975 240.922 80.5326 242.355 80.5326H243.644C245.076 80.5326 246.237 81.6959 246.238 83.1322L246.272 116.592C246.274 118.03 245.112 119.197 243.678 119.197H242.373C240.949 119.197 239.791 118.044 239.779 116.615L239.761 114.287C238.399 116.091 236.678 117.528 234.597 118.597C232.516 119.667 230.267 120.202 227.852 120.202C224.974 120.202 222.347 119.499 219.97 118.095C217.593 116.689 215.705 114.802 214.305 112.43C212.904 110.059 212.204 107.417 212.204 104.503V104.504Z" fill="#020F00"/>
<path d="M273.906 79.4503C277.656 79.4503 281.067 80.3651 284.138 82.1952C287.207 84.0263 289.655 86.4813 291.48 89.5611C293.304 92.6409 294.216 96.0632 294.216 99.8267C294.216 102.636 293.689 105.271 292.636 107.733C291.582 110.195 290.124 112.359 288.261 114.228C286.398 116.098 284.24 117.56 281.786 118.617C279.333 119.673 276.706 120.202 273.906 120.202C270.925 120.202 268.336 119.499 266.14 118.095C263.942 116.69 262.189 114.854 260.879 112.585V116.594C260.879 118.032 259.717 119.197 258.285 119.197H256.998C255.565 119.197 254.404 118.032 254.404 116.594V63.8031C254.404 62.3657 255.565 61.2008 256.998 61.2008H258.285C259.717 61.2008 260.879 62.3657 260.879 63.8031V87.0664C262.189 84.7996 263.943 82.9621 266.14 81.5565C268.336 80.1526 270.925 79.4498 273.906 79.4498V79.4503ZM273.828 113.862C276.372 113.862 278.685 113.23 280.766 111.967C282.847 110.704 284.504 109.009 285.737 106.883C286.97 104.756 287.588 102.404 287.588 99.8272C287.588 97.1968 286.958 94.8192 285.699 92.6934C284.44 90.5665 282.769 88.879 280.688 87.6287C278.607 86.3785 276.32 85.7531 273.828 85.7531C271.311 85.7531 269.121 86.3848 267.257 87.6478C265.394 88.9108 263.956 90.6121 262.941 92.7507C261.926 94.8903 261.418 97.2488 261.418 99.8272C261.418 102.431 261.926 104.795 262.941 106.921C263.955 109.048 265.4 110.736 267.276 111.986C269.152 113.236 271.336 113.862 273.828 113.862Z" fill="#020F00"/>
<path d="M312.562 119.931C310.481 119.854 308.457 119.461 306.491 118.752C304.526 118.043 302.804 117.077 301.327 115.852C300.801 115.417 300.326 114.958 299.903 114.475C298.761 113.17 299.289 111.109 300.879 110.422L301.747 110.048C302.772 109.605 303.925 109.923 304.685 110.743C304.987 111.069 305.338 111.387 305.739 111.696C306.741 112.47 307.898 113.087 309.209 113.553C310.518 114.016 311.842 114.247 313.178 114.247C314.591 114.247 315.914 114.029 317.148 113.59C318.382 113.152 319.389 112.501 320.173 111.637C320.957 110.774 321.348 109.738 321.348 108.526C321.348 107.237 320.919 106.224 320.057 105.49C319.196 104.755 318.117 104.176 316.82 103.75C315.523 103.325 314.206 102.919 312.869 102.533C310.224 101.862 307.86 101.058 305.779 100.116C303.697 99.1758 302.059 97.9765 300.865 96.52C299.67 95.0636 299.073 93.2012 299.073 90.9328C299.073 88.5361 299.734 86.4612 301.058 84.7079C302.381 82.9557 304.122 81.6026 306.28 80.6481C308.438 79.6952 310.751 79.2171 313.217 79.2171C316.325 79.2171 319.165 79.8881 321.735 81.2285C323.274 82.0314 324.578 83.0055 325.646 84.1509C326.764 85.3487 326.421 87.2996 325.01 88.1285L324.32 88.5334C323.267 89.1514 321.95 88.9331 321.111 88.0448C320.857 87.7766 320.577 87.5217 320.27 87.2789C319.37 86.5698 318.343 86.0096 317.186 85.5967C316.03 85.1849 314.848 84.965 313.641 84.9395C312.15 84.8876 310.757 85.0821 309.458 85.5188C308.161 85.9571 307.12 86.6207 306.337 87.51C305.553 88.3994 305.162 89.5012 305.162 90.8162C305.162 92.1046 305.579 93.0846 306.415 93.7539C307.249 94.4249 308.341 94.9597 309.69 95.3588C311.039 95.7589 312.51 96.2163 314.103 96.731C316.441 97.4793 318.625 98.3422 320.655 99.3216C322.684 100.301 324.322 101.525 325.568 102.995C326.814 104.464 327.425 106.281 327.4 108.446C327.4 110.818 326.693 112.886 325.28 114.652C323.866 116.417 322.036 117.763 319.787 118.692C317.539 119.621 315.13 120.032 312.561 119.929L312.562 119.931Z" fill="#020F00"/>
<path d="M337.909 138.529H336.622C335.19 138.529 334.028 137.364 334.028 135.927V83.1354C334.028 81.6981 335.19 80.5331 336.622 80.5331H337.909C339.342 80.5331 340.503 81.6981 340.503 83.1354V87.1443C341.814 84.8759 343.561 83.04 345.744 81.6345C347.928 80.2305 350.525 79.5277 353.53 79.5277C356.331 79.5277 358.957 80.0561 361.411 81.1124C363.864 82.1698 366.018 83.632 367.867 85.5013C369.717 87.3706 371.167 89.5293 372.222 91.9779C373.275 94.4265 373.802 97.0553 373.802 99.8649C373.802 102.674 373.275 105.316 372.222 107.792C371.167 110.266 369.717 112.437 367.867 114.306C366.018 116.176 363.864 117.638 361.411 118.694C358.957 119.752 356.331 120.28 353.53 120.28C350.525 120.28 347.928 119.577 345.744 118.173C343.561 116.768 341.814 114.932 340.503 112.663V135.927C340.503 137.364 339.342 138.529 337.909 138.529ZM353.453 85.8305C350.96 85.8305 348.776 86.4622 346.901 87.7252C345.025 88.9882 343.58 90.6768 342.565 92.7899C341.551 94.903 341.043 97.2615 341.043 99.8649C341.043 102.443 341.55 104.801 342.565 106.94C343.579 109.079 345.019 110.781 346.882 112.044C348.745 113.307 350.935 113.939 353.453 113.939C355.944 113.939 358.232 113.314 360.313 112.063C362.394 110.813 364.064 109.126 365.323 106.999C366.582 104.872 367.212 102.494 367.212 99.8649C367.212 97.288 366.595 94.9348 365.361 92.809C364.129 90.6821 362.471 88.9882 360.39 87.7252C358.309 86.4622 355.996 85.8305 353.453 85.8305Z" fill="#020F00"/>
<path d="M413.641 80.5325H414.835C416.267 80.5325 417.429 81.6975 417.429 83.1348V116.594C417.429 118.032 416.267 119.197 414.835 119.197H413.443C412.052 119.197 410.908 118.096 410.851 116.702L410.684 112.663C409.477 114.904 407.814 116.723 405.694 118.114C403.574 119.505 401.049 120.201 398.12 120.201C395.293 120.201 392.647 119.667 390.182 118.597C387.714 117.528 385.537 116.045 383.649 114.15C381.76 112.256 380.29 110.072 379.236 107.598C378.182 105.122 377.656 102.455 377.656 99.5935C377.656 96.8359 378.169 94.2325 379.198 91.7839C380.225 89.3353 381.657 87.1893 383.495 85.3455C385.332 83.5032 387.457 82.0595 389.872 81.0148C392.288 79.9718 394.883 79.4492 397.658 79.4492C400.689 79.4492 403.349 80.1647 405.635 81.5952C407.922 83.0262 409.771 84.8748 411.185 87.1427L411.048 83.225C410.996 81.7526 412.172 80.531 413.64 80.531L413.641 80.5325ZM398.006 113.899C400.549 113.899 402.751 113.275 404.615 112.025C406.478 110.775 407.916 109.08 408.931 106.94C409.946 104.801 410.454 102.443 410.454 99.8648C410.454 97.236 409.94 94.8585 408.912 92.731C407.884 90.6041 406.439 88.9166 404.577 87.6664C402.713 86.4161 400.522 85.7907 398.006 85.7907C395.461 85.7907 393.15 86.4235 391.069 87.6854C388.988 88.9484 387.336 90.6434 386.116 92.7692C384.895 94.8961 384.285 97.2609 384.285 99.8648C384.285 102.469 384.914 104.833 386.173 106.96C387.432 109.086 389.103 110.775 391.184 112.025C393.265 113.275 395.538 113.899 398.006 113.899Z" fill="#020F00"/>
<path d="M452.648 109.926L453.874 110.589C455.399 111.416 455.723 113.503 454.486 114.721C453.187 116 451.71 117.092 450.055 117.998C447.369 119.467 444.459 120.201 441.325 120.201C437.778 120.201 434.547 119.287 431.632 117.457C428.715 115.627 426.39 113.17 424.656 110.091C422.921 107.01 422.055 103.602 422.055 99.8643C422.055 97.0293 422.555 94.3799 423.557 91.9185C424.56 89.4572 425.941 87.2922 427.7 85.4229C429.461 83.5551 431.51 82.0923 433.848 81.035C436.184 79.9776 438.678 79.4492 441.324 79.4492C444.458 79.4492 447.369 80.1838 450.054 81.6524C451.719 82.5646 453.204 83.6696 454.508 84.9676C455.736 86.1892 455.41 88.2679 453.888 89.0926L452.67 89.753C451.681 90.2888 450.475 90.107 449.654 89.3369C448.717 88.4592 447.675 87.7411 446.526 87.1825C444.831 86.3578 443.096 85.9449 441.324 85.9449C438.934 85.9449 436.769 86.583 434.83 87.8587C432.889 89.1344 431.354 90.8294 430.223 92.9425C429.093 95.0567 428.528 97.3643 428.528 99.8638C428.528 102.363 429.099 104.665 430.243 106.765C431.386 108.866 432.927 110.549 434.867 111.811C436.807 113.073 438.959 113.705 441.323 113.705C443.225 113.705 445.009 113.268 446.68 112.391C447.779 111.815 448.767 111.126 449.642 110.326C450.469 109.571 451.663 109.392 452.647 109.925L452.648 109.926Z" fill="#020F00"/>
<path d="M479.904 120.202C476.358 120.202 473.127 119.287 470.211 117.457C467.294 115.628 464.97 113.171 463.236 110.091C461.5 107.011 460.634 103.603 460.634 99.8648C460.634 97.0299 461.135 94.3804 462.136 91.9191C463.139 89.4578 464.52 87.2927 466.279 85.4234C468.04 83.5557 470.089 82.0929 472.427 81.0355C474.764 79.9782 477.257 79.4498 479.904 79.4498C482.807 79.4498 485.473 80.037 487.899 81.2083C490.327 82.3823 492.41 84.0125 494.144 86.1002C495.878 88.1879 497.175 90.611 498.036 93.3686C498.651 95.3408 498.988 97.4115 499.046 99.5808C499.084 101.032 497.889 102.223 496.443 102.223H467.532C467.841 104.415 468.559 106.366 469.69 108.08C470.821 109.794 472.266 111.154 474.026 112.159C475.787 113.164 477.745 113.68 479.904 113.706C482.215 113.706 484.309 113.107 486.185 111.908C487.605 111.001 488.819 109.839 489.827 108.422C490.436 107.566 491.496 107.158 492.517 107.398L493.962 107.737C495.728 108.151 496.559 110.227 495.533 111.727C494.156 113.743 492.427 115.479 490.349 116.935C487.239 119.113 483.757 120.202 479.904 120.202ZM468.902 97.1205H490.946C491.773 97.1205 492.399 96.3499 492.224 95.5385C491.887 93.9818 491.274 92.5307 490.387 91.185C489.205 89.3936 487.701 87.9563 485.878 86.8735C484.052 85.7907 482.063 85.2496 479.904 85.2496C477.745 85.2496 475.766 85.778 473.969 86.8353C472.17 87.8927 470.686 89.3157 469.517 91.1071C468.637 92.4549 468.009 93.9225 467.631 95.5109C467.437 96.3292 468.063 97.1194 468.902 97.1194V97.1205Z" fill="#020F00"/>
<defs>
<linearGradient id="paint0_linear_671_10122" x1="93.8993" y1="138.969" x2="5.31243" y2="-25.3242" gradientUnits="userSpaceOnUse">
<stop stop-color="white"/>
<stop offset="0.003" stop-color="#FAF8FD"/>
<stop offset="0.032" stop-color="#D7C5F4"/>
<stop offset="0.062" stop-color="#B999EC"/>
<stop offset="0.092" stop-color="#A176E6"/>
<stop offset="0.121" stop-color="#8E5AE1"/>
<stop offset="0.151" stop-color="#8046DD"/>
<stop offset="0.181" stop-color="#783ADB"/>
<stop offset="0.212" stop-color="#7637DB"/>
<stop offset="0.415" stop-color="#6F2DD8"/>
<stop offset="0.638" stop-color="#641ED3"/>
<stop offset="0.671" stop-color="#5F1CCA"/>
<stop offset="0.724" stop-color="#5419B2"/>
<stop offset="0.79" stop-color="#42148C"/>
<stop offset="0.867" stop-color="#290C57"/>
<stop offset="0.952" stop-color="#090214"/>
<stop offset="0.977"/>
</linearGradient>
<linearGradient id="paint1_linear_671_10122" x1="177.991" y1="90.5196" x2="75.6663" y2="56.8195" gradientUnits="userSpaceOnUse">
<stop stop-color="white"/>
<stop offset="0.015" stop-color="#E7DCF8"/>
<stop offset="0.04" stop-color="#C4AAEE"/>
<stop offset="0.066" stop-color="#A77FE6"/>
<stop offset="0.091" stop-color="#8E5CDF"/>
<stop offset="0.117" stop-color="#7C40D9"/>
<stop offset="0.143" stop-color="#6E2DD6"/>
<stop offset="0.169" stop-color="#6621D3"/>
<stop offset="0.197" stop-color="#641ED3"/>
<stop offset="0.315" stop-color="#621DCF"/>
<stop offset="0.424" stop-color="#5D1BC4"/>
<stop offset="0.528" stop-color="#5419B1"/>
<stop offset="0.63" stop-color="#471597"/>
<stop offset="0.731" stop-color="#371075"/>
<stop offset="0.83" stop-color="#240A4C"/>
<stop offset="0.926" stop-color="#0D041C"/>
<stop offset="0.977"/>
</linearGradient>
</defs>
</svg>
