<svg width="24" height="24" viewBox="0 0 24 24" fill="none" xmlns="http://www.w3.org/2000/svg">
<g clip-path="url(#clip0_847_11426)">
<path fill-rule="evenodd" clip-rule="evenodd" d="M13.868 6.36953C13.5603 5.80212 13.0627 5.3869 12.4734 5.19412C11.884 5.00127 11.2314 5.0405 10.6384 5.31626C10.0441 5.5926 9.55288 6.08716 9.26647 6.71095C8.98002 7.33481 8.92338 8.03377 9.10009 8.67157C9.27649 9.30821 9.6714 9.83597 10.2001 10.1637C10.7281 10.4911 11.3633 10.6028 11.9888 10.4719C12.3942 10.387 12.7917 10.6469 12.8765 11.0523C12.9614 11.4578 12.7015 11.8552 12.2961 11.9401C11.2994 12.1487 10.2704 11.9722 9.4097 11.4386C8.54955 10.9053 7.92816 10.0596 7.65455 9.07209C7.38126 8.08573 7.47238 7.02354 7.9033 6.08504C8.33424 5.14647 9.07978 4.38678 10.0059 3.95613C10.9332 3.5249 11.9782 3.45386 12.9399 3.76849C13.9018 4.08319 14.7003 4.7577 15.1866 5.65447C15.384 6.01859 15.2489 6.47384 14.8848 6.6713C14.5207 6.86876 14.0654 6.73365 13.868 6.36953ZM8.35943 13.8333C9.35648 13.4478 10.4235 13.25 11.5 13.25C12.5765 13.25 13.6435 13.4478 14.6406 13.8333C15.6377 14.2187 16.5469 14.785 17.315 15.5019C18.0833 16.219 18.6957 17.0731 19.1146 18.0169C19.5336 18.9609 19.75 19.9747 19.75 21C19.75 21.4142 19.4142 21.75 19 21.75C18.5858 21.75 18.25 21.4142 18.25 21C18.25 20.1867 18.0784 19.38 17.7436 18.6254C17.4086 17.8707 16.9162 17.1815 16.2916 16.5985C15.6669 16.0154 14.9225 15.5504 14.0997 15.2323C13.2768 14.9142 12.3933 14.75 11.5 14.75C10.6067 14.75 9.72315 14.9142 8.90032 15.2323C8.07753 15.5504 7.33314 16.0154 6.70844 16.5985C6.08384 17.1815 5.59137 17.8707 5.25643 18.6254C4.92156 19.38 4.75 20.1867 4.75 21C4.75 21.4142 4.41421 21.75 4 21.75C3.58579 21.75 3.25 21.4142 3.25 21C3.25 19.9747 3.46643 18.9609 3.88538 18.0169C4.30426 17.0731 4.91668 16.219 5.68496 15.5019C6.45314 14.785 7.36233 14.2187 8.35943 13.8333ZM18 3.99993C18.3945 3.99993 18.7143 4.31973 18.7143 4.71421V8.28564H22.2857C22.6802 8.28564 23 8.60544 23 8.99993C23 9.39442 22.6802 9.71421 22.2857 9.71421H18.7143V13.2856C18.7143 13.6801 18.3945 13.9999 18 13.9999C17.6055 13.9999 17.2857 13.6801 17.2857 13.2856V9.71421H13.7143C13.3198 9.71421 13 9.39442 13 8.99993C13 8.60544 13.3198 8.28564 13.7143 8.28564H17.2857V4.71421C17.2857 4.31973 17.6055 3.99993 18 3.99993Z" fill="#020F00"/>
</g>
<defs>
<clipPath id="clip0_847_11426">
<rect width="24" height="24" fill="white"/>
</clipPath>
</defs>
</svg>
