<svg width="24" height="24" viewBox="0 0 24 24" fill="none" xmlns="http://www.w3.org/2000/svg">
<g clip-path="url(#clip0_847_11463)">
<path fill-rule="evenodd" clip-rule="evenodd" d="M13.8053 3.69166C13.8053 3.13938 13.3576 2.69166 12.8053 2.69166C12.253 2.69167 11.8053 3.13938 11.8053 3.69166L11.8053 10.5097L5.30542 10.5097C4.75314 10.5097 4.30542 10.9575 4.30543 11.5097C4.30543 12.062 4.75314 12.5097 5.30543 12.5097L11.8053 12.5097L11.8053 19.3083C11.8053 19.8606 12.253 20.3083 12.8053 20.3083C13.3576 20.3083 13.8053 19.8606 13.8053 19.3083L13.8053 12.5097L20.15 12.5097C20.7023 12.5097 21.15 12.062 21.15 11.5097C21.15 10.9574 20.7023 10.5097 20.15 10.5097L13.8053 10.5097L13.8053 3.69166Z" fill="#020F00"/>
</g>
<defs>
<clipPath id="clip0_847_11463">
<rect width="24" height="24" fill="white"/>
</clipPath>
</defs>
</svg>
