<svg width="24" height="24" viewBox="0 0 24 24" fill="none" xmlns="http://www.w3.org/2000/svg">
<g clip-path="url(#clip0_847_11432)">
<path fill-rule="evenodd" clip-rule="evenodd" d="M21.5 12C21.5 17.2467 17.2467 21.5 12 21.5C6.75329 21.5 2.5 17.2467 2.5 12C2.5 6.75329 6.75329 2.5 12 2.5C17.2467 2.5 21.5 6.75329 21.5 12ZM23 12C23 18.0751 18.0751 23 12 23C5.92487 23 1 18.0751 1 12C1 5.92487 5.92487 1 12 1C18.0751 1 23 5.92487 23 12ZM10.5303 8.21967C10.8232 8.51256 10.8232 8.98744 10.5303 9.28033L8.61066 11.2H16.85C17.3471 11.2 17.75 11.6029 17.75 12.1C17.75 12.5971 17.3471 13 16.85 13H8.81066L10.5303 14.7197C10.8232 15.0126 10.8232 15.4874 10.5303 15.7803C10.2374 16.0732 9.76256 16.0732 9.46967 15.7803L6.21967 12.5303C5.92678 12.2374 5.92678 11.7626 6.21967 11.4697L9.46967 8.21967C9.76256 7.92678 10.2374 7.92678 10.5303 8.21967Z" fill="#FFF"/>
</g>
<defs>
<clipPath id="clip0_847_11432">
<rect width="24" height="24" fill="white"/>
</clipPath>
</defs>
</svg>
 
