<svg width="24" height="24" viewBox="0 0 24 24" fill="none" xmlns="http://www.w3.org/2000/svg">
<g clip-path="url(#clip0_847_11534)">
<path fill-rule="evenodd" clip-rule="evenodd" d="M19.5 3.72727H20C21.1 3.72727 22 4.50455 22 5.45455V19.2727C22 20.2227 21.1 21 20 21H4C2.9 21 2 20.2227 2 19.2727V5.45455C2 4.50455 2.9 3.72727 4 3.72727H4.5C4.77614 3.72727 5 3.50341 5 3.22727V2.5C5 2.22386 5.22386 2 5.5 2H6.5C6.77614 2 7 2.22386 7 2.5V3.22727C7 3.50342 7.22386 3.72727 7.5 3.72727H16.5C16.7761 3.72727 17 3.50341 17 3.22727V2.5C17 2.22386 17.2239 2 17.5 2H18.5C18.7761 2 19 2.22386 19 2.5V3.22727C19 3.50342 19.2239 3.72727 19.5 3.72727ZM19.5 19.2727C19.7761 19.2727 20 19.0489 20 18.7727V8.54545C20 8.26931 19.7761 8.04545 19.5 8.04545H4.5C4.22386 8.04545 4 8.26931 4 8.54545V18.7727C4 19.0489 4.22386 19.2727 4.5 19.2727H19.5ZM5.5 9C5.22386 9 5 9.22386 5 9.5V12.5C5 12.7761 5.22386 13 5.5 13H8.5C8.77614 13 9 12.7761 9 12.5V9.5C9 9.22386 8.77614 9 8.5 9H5.5ZM10 9.5C10 9.22386 10.2239 9 10.5 9H13.5C13.7761 9 14 9.22386 14 9.5V12.5C14 12.7761 13.7761 13 13.5 13H10.5C10.2239 13 10 12.7761 10 12.5V9.5ZM15.5 9C15.2239 9 15 9.22386 15 9.5V12.5C15 12.7761 15.2239 13 15.5 13H18.5C18.7761 13 19 12.7761 19 12.5V9.5C19 9.22386 18.7761 9 18.5 9H15.5Z" fill="#020F00"/>
</g>
<defs>
<clipPath id="clip0_847_11534">
<rect width="24" height="24" fill="white"/>
</clipPath>
</defs>
</svg>
