<svg width="24" height="24" viewBox="0 0 24 24" fill="none" xmlns="http://www.w3.org/2000/svg">
<g clip-path="url(#clip0_847_11485)">
<path fill-rule="evenodd" clip-rule="evenodd" d="M9.47409 4C9.31566 4 9.16661 4.07508 9.07231 4.20239L7.74074 6H4C2.89543 6 2 6.89543 2 8V18C2 19.1046 2.89543 20 4 20H20C21.1046 20 22 19.1046 22 18V8C22 6.89543 21.1046 6 20 6H16.2593L14.9277 4.20239C14.8334 4.07508 14.6843 4 14.5259 4H9.47409ZM4 7.5H20C20.2761 7.5 20.5 7.72386 20.5 8V18C20.5 18.2761 20.2761 18.5 20 18.5H4C3.72386 18.5 3.5 18.2761 3.5 18V8C3.5 7.72386 3.72386 7.5 4 7.5ZM15.5 13C15.5 14.933 13.933 16.5 12 16.5C10.067 16.5 8.5 14.933 8.5 13C8.5 11.067 10.067 9.5 12 9.5C13.933 9.5 15.5 11.067 15.5 13ZM17 13C17 15.7614 14.7614 18 12 18C9.23858 18 7 15.7614 7 13C7 10.2386 9.23858 8 12 8C14.7614 8 17 10.2386 17 13ZM14 13C14 14.1046 13.1046 15 12 15C10.8954 15 10 14.1046 10 13C10 11.8954 10.8954 11 12 11C13.1046 11 14 11.8954 14 13Z" fill="#020F00"/>
</g>
<defs>
<clipPath id="clip0_847_11485">
<rect width="24" height="24" fill="white"/>
</clipPath>
</defs>
</svg>
