<svg width="24" height="24" viewBox="0 0 24 24" fill="none" xmlns="http://www.w3.org/2000/svg">
<g clip-path="url(#clip0_893_12546)">
<path fill-rule="evenodd" clip-rule="evenodd" d="M21.5 12C21.5 17.2467 17.2467 21.5 12 21.5C6.75329 21.5 2.5 17.2467 2.5 12C2.5 6.75329 6.75329 2.5 12 2.5C17.2467 2.5 21.5 6.75329 21.5 12ZM23 12C23 18.0751 18.0751 23 12 23C5.92487 23 1 18.0751 1 12C1 5.92487 5.92487 1 12 1C18.0751 1 23 5.92487 23 12ZM10.0002 6V12.968C9.99681 13.0754 10.0109 13.182 10.041 13.2837C10.1116 13.522 10.2702 13.7336 10.4994 13.8658C10.5212 13.8784 10.5434 13.8902 10.5661 13.9011L14.5527 15.8944C15.0467 16.1414 15.6473 15.9412 15.8943 15.4472C16.1413 14.9532 15.9411 14.3526 15.4471 14.1056L12.0002 12.3821V6C12.0002 5.44772 11.5525 5 11.0002 5C10.4479 5 10.0002 5.44772 10.0002 6Z" fill="#020F00"/>
</g>
<defs>
<clipPath id="clip0_893_12546">
<rect width="24" height="24" fill="white"/>
</clipPath>
</defs>
</svg>
