<svg width="24" height="24" viewBox="0 0 24 24" fill="none" xmlns="http://www.w3.org/2000/svg">
<g clip-path="url(#clip0_847_11458)">
<path fill-rule="evenodd" clip-rule="evenodd" d="M5.29289 16.8032C4.90237 17.1937 4.90237 17.8269 5.29289 18.2174C5.68342 18.6079 6.31658 18.6079 6.70711 18.2174L12.0178 12.9068L17.2927 18.1818C17.6832 18.5723 18.3164 18.5723 18.7069 18.1818C19.0975 17.7913 19.0975 17.1581 18.7069 16.7676L13.432 11.4926L18.7279 6.19661C19.1184 5.80608 19.1184 5.17292 18.7279 4.78239C18.3374 4.39187 17.7042 4.39187 17.3137 4.7824L12.0178 10.0783L7.06802 5.12857C6.6775 4.73805 6.04433 4.73804 5.65381 5.12857C5.26328 5.51909 5.26328 6.15226 5.6538 6.54278L10.6035 11.4926L5.29289 16.8032Z" fill="#020F00"/>
</g>
<defs>
<clipPath id="clip0_847_11458">
<rect width="24" height="24" fill="white"/>
</clipPath>
</defs>
</svg>
