<svg width="24" height="24" viewBox="0 0 24 24" fill="none" xmlns="http://www.w3.org/2000/svg">
<g clip-path="url(#clip0_847_11575)">
<path fill-rule="evenodd" clip-rule="evenodd" d="M7.01407 3.04441C9.12756 1.86775 11.5891 1.47648 13.9633 1.9398C16.2697 2.3899 18.3492 3.61832 19.8559 5.4162L17.8534 5.13761C17.4432 5.08054 17.0643 5.36685 17.0072 5.77711C16.9502 6.18738 17.2365 6.56623 17.6467 6.6233L21.3971 7.14504C21.6119 7.17493 21.8292 7.11032 21.9928 6.96788C22.1565 6.82545 22.2504 6.61913 22.2504 6.4022V2.75002C22.2504 2.33581 21.9146 2.00002 21.5004 2.00002C21.0862 2.00002 20.7504 2.33581 20.7504 2.75002V4.15826C19.0472 2.2576 16.7666 0.958581 14.2506 0.467571C11.529 -0.0635555 8.7072 0.384978 6.28442 1.73383C3.86164 3.08269 1.99397 5.24494 1.01178 7.83812C0.0295829 10.4313 -0.00383843 13.2883 0.917423 15.9037C1.83869 18.5192 3.65526 20.7245 6.04582 22.1297C8.43639 23.5349 11.2469 24.0493 13.9802 23.582C16.7135 23.1146 19.1934 21.6957 20.9814 19.5762C22.7693 17.4566 23.75 14.773 23.75 12C23.75 11.5858 23.4142 11.25 23 11.25C22.5858 11.25 22.25 11.5858 22.25 12C22.25 14.419 21.3945 16.76 19.8348 18.609C18.2751 20.458 16.1118 21.6958 13.7274 22.1034C11.343 22.5111 8.89132 22.0623 6.80593 20.8365C4.72055 19.6108 3.13587 17.687 2.33222 15.4054C1.52857 13.1238 1.55772 10.6316 2.41453 8.36943C3.27133 6.10729 4.90058 4.22107 7.01407 3.04441Z" fill="#5D1EBF"/>
<path fill-rule="evenodd" clip-rule="evenodd" d="M13.1757 7.90266C13.1757 8.87174 12.5282 9.30533 12.1358 9.30533C11.7434 9.30533 11.096 8.87174 11.096 7.90266C11.096 6.93359 11.7434 6.5 12.1358 6.5C12.5282 6.5 13.1757 6.93359 13.1757 7.90266ZM14.6757 7.90266C14.6757 9.50576 13.5385 10.8053 12.1358 10.8053C10.7331 10.8053 9.59599 9.50576 9.59599 7.90266C9.59599 6.29957 10.7331 5 12.1358 5C13.5385 5 14.6757 6.29957 14.6757 7.90266ZM12.1359 11.5068C11.3296 11.5068 10.5301 11.655 9.78266 11.9439C9.03519 12.2329 8.35281 12.6577 7.77569 13.1963C7.19847 13.7351 6.7376 14.3775 6.42212 15.0883C6.10657 15.7994 5.94336 16.5634 5.94336 17.3365C5.94336 17.7507 6.27915 18.0865 6.69336 18.0865C7.10757 18.0865 7.44336 17.7507 7.44336 17.3365C7.44336 16.7754 7.5617 16.2184 7.79317 15.6968C8.02471 15.1751 8.36563 14.6975 8.79917 14.2929C9.23282 13.8882 9.75039 13.5646 10.3235 13.343C10.8968 13.1214 11.5127 13.0068 12.1359 13.0068C12.759 13.0068 13.375 13.1214 13.9482 13.343C14.5213 13.5646 15.0389 13.8882 15.4725 14.2929C15.9061 14.6975 16.247 15.1751 16.4785 15.6968C16.71 16.2184 16.8284 16.7754 16.8284 17.3365C16.8284 17.7507 17.1641 18.0865 17.5784 18.0865C17.9926 18.0865 18.3284 17.7507 18.3284 17.3365C18.3284 16.5634 18.1651 15.7994 17.8496 15.0883C17.5341 14.3775 17.0732 13.7351 16.496 13.1963C15.9189 12.6577 15.2365 12.2329 14.4891 11.9439C13.7416 11.655 12.9422 11.5068 12.1359 11.5068Z" fill="#5D1EBF"/>
</g>
<defs>
<clipPath id="clip0_847_11575">
<rect width="24" height="24" fill="white"/>
</clipPath>
</defs>
</svg>
