<svg width="24" height="24" viewBox="0 0 24 24" fill="none" xmlns="http://www.w3.org/2000/svg">
<circle cx="7.5" cy="15.5" r="2.5" fill="#F3EFFB"/>
<mask id="path-2-outside-1_847_11573" maskUnits="userSpaceOnUse" x="1" y="8.75" width="14" height="14" fill="black">
<rect fill="white" x="1" y="8.75" width="14" height="14"/>
<path d="M10.3333 15.375C10.3333 16.9283 9.08968 18.1875 7.55556 18.1875C6.02143 18.1875 4.77778 16.9283 4.77778 15.375C4.77778 13.8217 6.02143 12.5625 7.55556 12.5625C9.08968 12.5625 10.3333 13.8217 10.3333 15.375Z"/>
<path d="M11.7871 15.9262C11.8099 15.7462 11.8327 15.5663 11.8327 15.375C11.8327 15.1837 11.8213 15.0038 11.7871 14.8238L12.9957 13.89C13.0983 13.8 13.1325 13.6538 13.0641 13.53L11.9239 11.5838C11.8555 11.46 11.7073 11.415 11.5705 11.46L10.1566 12.0225C9.86018 11.7975 9.54093 11.6062 9.18747 11.4712L8.97084 9.98625C8.95943 9.85125 8.83401 9.75 8.69719 9.75H6.41681C6.27999 9.75 6.15457 9.85125 6.13176 9.98625L5.91513 11.4712C5.57307 11.6175 5.24242 11.7975 4.94597 12.0225L3.53213 11.46C3.40671 11.415 3.25848 11.46 3.17867 11.5838L2.03848 13.53C1.97007 13.6538 1.99287 13.8 2.10689 13.89L3.31549 14.8238C3.29269 15.0038 3.28129 15.1837 3.28129 15.375C3.28129 15.5663 3.29269 15.7462 3.31549 15.9262L2.10689 16.86C2.00428 16.95 1.97007 17.0962 2.03848 17.22L3.17867 19.1663C3.24708 19.29 3.39531 19.335 3.53213 19.29L4.94597 18.7275C5.24242 18.9525 5.56167 19.1437 5.91513 19.2787L6.13176 20.7638C6.15457 20.8988 6.26859 21 6.41681 21H8.69719C8.83401 21 8.95943 20.8988 8.98224 20.7638L9.19887 19.2787C9.54093 19.1325 9.87159 18.9525 10.1566 18.7275L11.5819 19.29C11.7073 19.335 11.8555 19.29 11.9353 19.1663L13.0755 17.22C13.1439 17.0962 13.1097 16.95 13.0071 16.86L11.7871 15.9262ZM7.557 17.0625C6.61064 17.0625 5.84672 16.3087 5.84672 15.375C5.84672 14.4413 6.61064 13.6875 7.557 13.6875C8.50336 13.6875 9.26729 14.4413 9.26729 15.375C9.26729 16.3087 8.50336 17.0625 7.557 17.0625Z"/>
</mask>
<path d="M10.3333 15.375C10.3333 16.9283 9.08968 18.1875 7.55556 18.1875C6.02143 18.1875 4.77778 16.9283 4.77778 15.375C4.77778 13.8217 6.02143 12.5625 7.55556 12.5625C9.08968 12.5625 10.3333 13.8217 10.3333 15.375Z" fill="white"/>
<path d="M11.7871 15.9262C11.8099 15.7462 11.8327 15.5663 11.8327 15.375C11.8327 15.1837 11.8213 15.0038 11.7871 14.8238L12.9957 13.89C13.0983 13.8 13.1325 13.6538 13.0641 13.53L11.9239 11.5838C11.8555 11.46 11.7073 11.415 11.5705 11.46L10.1566 12.0225C9.86018 11.7975 9.54093 11.6062 9.18747 11.4712L8.97084 9.98625C8.95943 9.85125 8.83401 9.75 8.69719 9.75H6.41681C6.27999 9.75 6.15457 9.85125 6.13176 9.98625L5.91513 11.4712C5.57307 11.6175 5.24242 11.7975 4.94597 12.0225L3.53213 11.46C3.40671 11.415 3.25848 11.46 3.17867 11.5838L2.03848 13.53C1.97007 13.6538 1.99287 13.8 2.10689 13.89L3.31549 14.8238C3.29269 15.0038 3.28129 15.1837 3.28129 15.375C3.28129 15.5663 3.29269 15.7462 3.31549 15.9262L2.10689 16.86C2.00428 16.95 1.97007 17.0962 2.03848 17.22L3.17867 19.1663C3.24708 19.29 3.39531 19.335 3.53213 19.29L4.94597 18.7275C5.24242 18.9525 5.56167 19.1437 5.91513 19.2787L6.13176 20.7638C6.15457 20.8988 6.26859 21 6.41681 21H8.69719C8.83401 21 8.95943 20.8988 8.98224 20.7638L9.19887 19.2787C9.54093 19.1325 9.87159 18.9525 10.1566 18.7275L11.5819 19.29C11.7073 19.335 11.8555 19.29 11.9353 19.1663L13.0755 17.22C13.1439 17.0962 13.1097 16.95 13.0071 16.86L11.7871 15.9262ZM7.557 17.0625C6.61064 17.0625 5.84672 16.3087 5.84672 15.375C5.84672 14.4413 6.61064 13.6875 7.557 13.6875C8.50336 13.6875 9.26729 14.4413 9.26729 15.375C9.26729 16.3087 8.50336 17.0625 7.557 17.0625Z" fill="#5D1EBF"/>
<path d="M11.7871 15.9262L10.795 15.8006L10.7228 16.3709L11.1793 16.7204L11.7871 15.9262ZM11.7871 14.8238L11.1757 14.0324L10.6901 14.4076L10.8047 15.0104L11.7871 14.8238ZM12.9957 13.89L13.6071 14.6813L13.6317 14.6623L13.6551 14.6418L12.9957 13.89ZM13.0641 13.53L13.9393 13.0462L13.9333 13.0353L13.927 13.0245L13.0641 13.53ZM11.9239 11.5838L11.0488 12.0676L11.0548 12.0785L11.0611 12.0892L11.9239 11.5838ZM11.5705 11.46L11.258 10.5101L11.2291 10.5196L11.2008 10.5308L11.5705 11.46ZM10.1566 12.0225L9.55206 12.8191L10.0018 13.1604L10.5263 12.9517L10.1566 12.0225ZM9.18747 11.4712L8.19795 11.6156L8.28263 12.1961L8.83067 12.4054L9.18747 11.4712ZM8.97084 9.98625L7.97438 10.0704L7.97693 10.1006L7.98131 10.1306L8.97084 9.98625ZM6.13176 9.98625L5.14573 9.81969L5.14386 9.83077L5.14224 9.84189L6.13176 9.98625ZM5.91513 11.4712L6.30826 12.3907L6.82373 12.1703L6.90465 11.6156L5.91513 11.4712ZM4.94597 12.0225L4.5763 12.9517L5.10085 13.1604L5.55054 12.8191L4.94597 12.0225ZM3.53213 11.46L3.9018 10.5308L3.88593 10.5245L3.86984 10.5188L3.53213 11.46ZM3.17867 11.5838L2.3383 11.0417L2.32667 11.0598L2.31583 11.0783L3.17867 11.5838ZM2.03848 13.53L1.17564 13.0245L1.16934 13.0353L1.16331 13.0462L2.03848 13.53ZM2.10689 13.89L1.48728 14.675L1.49552 14.6813L2.10689 13.89ZM3.31549 14.8238L4.30757 14.9494L4.37944 14.3821L3.92687 14.0324L3.31549 14.8238ZM3.31549 15.9262L3.92687 16.7176L4.37944 16.3679L4.30757 15.8006L3.31549 15.9262ZM2.10689 16.86L1.49552 16.0687L1.4709 16.0877L1.44752 16.1082L2.10689 16.86ZM2.03848 17.22L1.16331 17.7038L1.16934 17.7147L1.17564 17.7255L2.03848 17.22ZM3.17867 19.1663L4.05384 18.6824L4.04781 18.6715L4.04151 18.6608L3.17867 19.1663ZM3.53213 19.29L3.84456 20.2399L3.8735 20.2304L3.9018 20.2192L3.53213 19.29ZM4.94597 18.7275L5.55054 17.9309L5.10085 17.5896L4.5763 17.7983L4.94597 18.7275ZM5.91513 19.2787L6.90465 19.1344L6.81997 18.5539L6.27193 18.3446L5.91513 19.2787ZM6.13176 20.7638L5.14224 20.9081L5.14386 20.9192L5.14573 20.9303L6.13176 20.7638ZM8.98224 20.7638L9.96827 20.9303L9.97014 20.9192L9.97176 20.9081L8.98224 20.7638ZM9.19887 19.2787L8.80574 18.3593L8.29027 18.5797L8.20935 19.1344L9.19887 19.2787ZM10.1566 18.7275L10.5237 17.7973L9.98862 17.5861L9.53705 17.9426L10.1566 18.7275ZM11.5819 19.29L11.2148 20.2202L11.2294 20.2259L11.2442 20.2312L11.5819 19.29ZM11.9353 19.1663L12.7757 19.7083L12.7873 19.6902L12.7982 19.6717L11.9353 19.1663ZM13.0755 17.22L13.9384 17.7255L13.9447 17.7147L13.9507 17.7038L13.0755 17.22ZM13.0071 16.86L13.6665 16.1082L13.6414 16.0862L13.6149 16.0659L13.0071 16.86ZM9.33333 15.375C9.33333 16.3878 8.52572 17.1875 7.55556 17.1875V19.1875C9.65364 19.1875 11.3333 17.4688 11.3333 15.375H9.33333ZM7.55556 17.1875C6.58539 17.1875 5.77778 16.3878 5.77778 15.375H3.77778C3.77778 17.4688 5.45747 19.1875 7.55556 19.1875V17.1875ZM5.77778 15.375C5.77778 14.3622 6.58539 13.5625 7.55556 13.5625V11.5625C5.45747 11.5625 3.77778 13.2812 3.77778 15.375H5.77778ZM7.55556 13.5625C8.52572 13.5625 9.33333 14.3622 9.33333 15.375H11.3333C11.3333 13.2812 9.65364 11.5625 7.55556 11.5625V13.5625ZM12.7792 16.0519C12.801 15.88 12.8327 15.639 12.8327 15.375H10.8327C10.8327 15.4935 10.8189 15.6125 10.795 15.8006L12.7792 16.0519ZM12.8327 15.375C12.8327 15.1445 12.8191 14.898 12.7695 14.6371L10.8047 15.0104C10.8235 15.1095 10.8327 15.223 10.8327 15.375H12.8327ZM12.3985 15.6151L13.6071 14.6813L12.3843 13.0987L11.1757 14.0324L12.3985 15.6151ZM13.6551 14.6418C14.0757 14.2729 14.2572 13.6212 13.9393 13.0462L12.1889 14.0138C12.0079 13.6863 12.121 13.3271 12.3363 13.1382L13.6551 14.6418ZM13.927 13.0245L12.7868 11.0783L11.0611 12.0892L12.2013 14.0355L13.927 13.0245ZM12.7991 11.0999C12.458 10.4829 11.7674 10.3425 11.258 10.5101L11.8829 12.4099C11.6472 12.4875 11.2531 12.4371 11.0488 12.0676L12.7991 11.0999ZM11.2008 10.5308L9.78696 11.0933L10.5263 12.9517L11.9401 12.3892L11.2008 10.5308ZM10.7612 11.2259C10.407 10.9571 10.0052 10.7131 9.54427 10.5371L8.83067 12.4054C9.07668 12.4994 9.3134 12.6379 9.55206 12.8191L10.7612 11.2259ZM10.177 11.3269L9.96036 9.84189L7.98131 10.1306L8.19795 11.6156L10.177 11.3269ZM9.96729 9.90209C9.90601 9.17651 9.27729 8.75 8.69719 8.75V10.75C8.39073 10.75 8.01286 10.526 7.97438 10.0704L9.96729 9.90209ZM8.69719 8.75H6.41681V10.75H8.69719V8.75ZM6.41681 8.75C5.81587 8.75 5.25373 9.18031 5.14573 9.81969L7.11779 10.1528C7.0554 10.5222 6.7441 10.75 6.41681 10.75V8.75ZM5.14224 9.84189L4.9256 11.3269L6.90465 11.6156L7.12129 10.1306L5.14224 9.84189ZM5.52199 10.5518C5.12322 10.7223 4.71733 10.9406 4.3414 11.2259L5.55054 12.8191C5.7675 12.6544 6.02292 12.5127 6.30826 12.3907L5.52199 10.5518ZM5.31564 11.0933L3.9018 10.5308L3.16246 12.3892L4.5763 12.9517L5.31564 11.0933ZM3.86984 10.5188C3.3103 10.318 2.67228 10.5239 2.3383 11.0417L4.01905 12.1258C3.84469 12.3961 3.50311 12.512 3.19442 12.4012L3.86984 10.5188ZM2.31583 11.0783L1.17564 13.0245L2.90132 14.0355L4.04151 12.0892L2.31583 11.0783ZM1.16331 13.0462C0.87561 13.5666 0.961178 14.2596 1.48731 14.6749L2.72647 13.1051C2.85752 13.2085 2.95575 13.3639 2.98843 13.5453C3.02033 13.7224 2.98366 13.8872 2.91365 14.0138L1.16331 13.0462ZM1.49552 14.6813L2.70412 15.6151L3.92687 14.0324L2.71827 13.0987L1.49552 14.6813ZM2.32342 14.6981C2.29522 14.9207 2.28129 15.1427 2.28129 15.375H4.28129C4.28129 15.2248 4.29016 15.0868 4.30757 14.9494L2.32342 14.6981ZM2.28129 15.375C2.28129 15.6073 2.29522 15.8293 2.32342 16.0519L4.30757 15.8006C4.29016 15.6632 4.28129 15.5252 4.28129 15.375H2.28129ZM2.70412 15.1349L1.49552 16.0687L2.71827 17.6513L3.92687 16.7176L2.70412 15.1349ZM1.44752 16.1082C1.02694 16.4771 0.845411 17.1288 1.16331 17.7038L2.91365 16.7362C3.09473 17.0637 2.98162 17.4229 2.76627 17.6118L1.44752 16.1082ZM1.17564 17.7255L2.31583 19.6717L4.04151 18.6608L2.90132 16.7145L1.17564 17.7255ZM2.3035 19.6501C2.64463 20.2671 3.33519 20.4075 3.84456 20.2399L3.2197 18.3401C3.45543 18.2625 3.84954 18.3129 4.05384 18.6824L2.3035 19.6501ZM3.9018 20.2192L5.31564 19.6567L4.5763 17.7983L3.16246 18.3608L3.9018 20.2192ZM4.3414 19.5241C4.69563 19.7929 5.09741 20.0369 5.55833 20.2129L6.27193 18.3446C6.02592 18.2506 5.7892 18.1121 5.55054 17.9309L4.3414 19.5241ZM4.9256 19.4231L5.14224 20.9081L7.12129 20.6194L6.90465 19.1344L4.9256 19.4231ZM5.14573 20.9303C5.24974 21.546 5.7801 22 6.41681 22V20C6.75708 20 7.0594 20.2515 7.11779 20.5972L5.14573 20.9303ZM6.41681 22H8.69719V20H6.41681V22ZM8.69719 22C9.29812 22 9.86027 21.5697 9.96827 20.9303L7.99621 20.5972C8.0586 20.2278 8.36991 20 8.69719 20V22ZM9.97176 20.9081L10.1884 19.4231L8.20935 19.1344L7.99271 20.6194L9.97176 20.9081ZM9.59201 20.1982C9.9887 20.0286 10.4025 19.8074 10.7762 19.5124L9.53705 17.9426C9.34066 18.0976 9.09317 18.2364 8.80574 18.3593L9.59201 20.1982ZM9.78952 19.6577L11.2148 20.2202L11.949 18.3598L10.5237 17.7973L9.78952 19.6577ZM11.2442 20.2312C11.8037 20.432 12.4417 20.2261 12.7757 19.7083L11.095 18.6242C11.2693 18.3539 11.6109 18.238 11.9196 18.3488L11.2442 20.2312ZM12.7982 19.6717L13.9384 17.7255L12.2127 16.7145L11.0725 18.6608L12.7982 19.6717ZM13.9507 17.7038C14.2686 17.1288 14.0871 16.4771 13.6665 16.1082L12.3477 17.6118C12.1324 17.4229 12.0193 17.0637 12.2003 16.7362L13.9507 17.7038ZM13.6149 16.0659L12.3949 15.1321L11.1793 16.7204L12.3993 17.6541L13.6149 16.0659ZM7.557 16.0625C7.15024 16.0625 6.84672 15.7439 6.84672 15.375H4.84672C4.84672 16.8736 6.07104 18.0625 7.557 18.0625V16.0625ZM6.84672 15.375C6.84672 15.0061 7.15024 14.6875 7.557 14.6875V12.6875C6.07105 12.6875 4.84672 13.8764 4.84672 15.375H6.84672ZM7.557 14.6875C7.96376 14.6875 8.26729 15.0061 8.26729 15.375H10.2673C10.2673 13.8764 9.04296 12.6875 7.557 12.6875V14.6875ZM8.26729 15.375C8.26729 15.7439 7.96376 16.0625 7.557 16.0625V18.0625C9.04296 18.0625 10.2673 16.8736 10.2673 15.375H8.26729Z" fill="white" mask="url(#path-2-outside-1_847_11573)"/>
<path fill-rule="evenodd" clip-rule="evenodd" d="M16.1483 4.8356C16.1483 6.15785 15.2503 6.87775 14.5489 6.87775C13.8475 6.87775 12.9495 6.15785 12.9495 4.8356C12.9495 3.51335 13.8475 2.79346 14.5489 2.79346C15.2503 2.79346 16.1483 3.51335 16.1483 4.8356ZM17.6483 4.8356C17.6483 6.79187 16.2606 8.37775 14.5489 8.37775C12.8372 8.37775 11.4495 6.79187 11.4495 4.8356C11.4495 2.87933 12.8372 1.29346 14.5489 1.29346C16.2606 1.29346 17.6483 2.87933 17.6483 4.8356ZM14.5488 9.39902C13.585 9.39902 12.6297 9.57614 11.7368 9.92133C10.8438 10.2665 10.0293 10.7737 9.3408 11.4163C9.03799 11.6989 9.02162 12.1735 9.30425 12.4763C9.58688 12.7791 10.0615 12.7955 10.3643 12.5129C10.9093 12.0042 11.559 11.5982 12.2776 11.3204C12.9963 11.0426 13.7682 10.899 14.5488 10.899C15.3294 10.899 16.1013 11.0426 16.82 11.3204C17.5386 11.5982 18.1883 12.0042 18.7333 12.5129C19.2782 13.0214 19.7075 13.6224 19.9992 14.2799C20.291 14.9372 20.4403 15.6397 20.4403 16.3478C20.4403 16.762 20.7761 17.0978 21.1903 17.0978C21.6045 17.0978 21.9403 16.762 21.9403 16.3478C21.9403 15.4278 21.7461 14.5182 21.3703 13.6714C20.9946 12.8247 20.4454 12.059 19.7568 11.4163C19.0684 10.7737 18.2538 10.2665 17.3608 9.92133C16.468 9.57614 15.5126 9.39902 14.5488 9.39902Z" fill="#5D1EBF"/>
</svg>
