<svg width="24" height="24" viewBox="0 0 24 24" fill="none" xmlns="http://www.w3.org/2000/svg">
<g clip-path="url(#clip0_847_11581)">
<path d="M20 3.72727H19.5C19.2239 3.72727 19 3.50342 19 3.22727V2.5C19 2.22386 18.7761 2 18.5 2H17.5C17.2239 2 17 2.22386 17 2.5V3.22727C17 3.50341 16.7761 3.72727 16.5 3.72727H7.5C7.22386 3.72727 7 3.50342 7 3.22727V2.5C7 2.22386 6.77614 2 6.5 2H5.5C5.22386 2 5 2.22386 5 2.5V3.22727C5 3.50341 4.77614 3.72727 4.5 3.72727H4C2.9 3.72727 2 4.50455 2 5.45455V19.2727C2 20.2227 2.9 21 4 21H20C21.1 21 22 20.2227 22 19.2727V5.45455C22 4.50455 21.1 3.72727 20 3.72727ZM20 18.7727C20 19.0489 19.7761 19.2727 19.5 19.2727H4.5C4.22386 19.2727 4 19.0489 4 18.7727V8.54545C4 8.26931 4.22386 8.04545 4.5 8.04545H19.5C19.7761 8.04545 20 8.26931 20 8.54545V18.7727Z" fill="#5D1EBF"/>
<path d="M8 13L10.5 15.5L17 11" stroke="#5D1EBF" stroke-width="2" stroke-linecap="round" stroke-linejoin="round"/>
</g>
<defs>
<clipPath id="clip0_847_11581">
<rect width="24" height="24" fill="white"/>
</clipPath>
</defs>
</svg>
