<svg width="32" height="32" viewBox="0 0 32 32" fill="none" xmlns="http://www.w3.org/2000/svg">
<g clip-path="url(#clip0_1342_21514)">
<path d="M16 11.9993C14.9392 11.9993 13.9217 12.4208 13.1716 13.1709C12.4214 13.9211 12 14.9385 12 15.9993C12 17.0602 12.4214 18.0776 13.1716 18.8278C13.9217 19.5779 14.9392 19.9993 16 19.9993C17.0609 19.9993 18.0783 19.5779 18.8284 18.8278C19.5786 18.0776 20 17.0602 20 15.9993C20 14.9385 19.5786 13.9211 18.8284 13.1709C18.0783 12.4208 17.0609 11.9993 16 11.9993ZM16 9.33268C17.7681 9.33268 19.4638 10.0351 20.7141 11.2853C21.9643 12.5355 22.6667 14.2312 22.6667 15.9993C22.6667 17.7675 21.9643 19.4632 20.7141 20.7134C19.4638 21.9636 17.7681 22.666 16 22.666C14.2319 22.666 12.5362 21.9636 11.286 20.7134C10.0357 19.4632 9.33335 17.7675 9.33335 15.9993C9.33335 14.2312 10.0357 12.5355 11.286 11.2853C12.5362 10.0351 14.2319 9.33268 16 9.33268ZM24.6667 8.99935C24.6667 9.44138 24.4911 9.8653 24.1785 10.1779C23.866 10.4904 23.442 10.666 23 10.666C22.558 10.666 22.1341 10.4904 21.8215 10.1779C21.5089 9.8653 21.3334 9.44138 21.3334 8.99935C21.3334 8.55732 21.5089 8.1334 21.8215 7.82084C22.1341 7.50828 22.558 7.33268 23 7.33268C23.442 7.33268 23.866 7.50828 24.1785 7.82084C24.4911 8.1334 24.6667 8.55732 24.6667 8.99935ZM16 5.33268C12.7014 5.33268 12.1627 5.34202 10.628 5.41002C9.58269 5.45935 8.88135 5.59935 8.23069 5.85268C7.65202 6.07668 7.23469 6.34468 6.79069 6.79002C6.37336 7.19321 6.05249 7.68546 5.85202 8.23002C5.59869 8.88335 5.45869 9.58335 5.41069 10.6273C5.34135 12.0993 5.33335 12.614 5.33335 15.9993C5.33335 19.298 5.34269 19.8367 5.41069 21.3713C5.46002 22.4153 5.60002 23.118 5.85202 23.7673C6.07869 24.3473 6.34535 24.7647 6.78802 25.2073C7.23735 25.6553 7.65469 25.9233 8.22802 26.1447C8.88669 26.3993 9.58802 26.5407 10.628 26.5887C12.1 26.658 12.6147 26.666 16 26.666C19.2987 26.666 19.8374 26.6567 21.372 26.5887C22.4147 26.5393 23.1174 26.3993 23.768 26.1474C24.3454 25.922 24.7654 25.654 25.208 25.2113C25.6574 24.762 25.9254 24.3447 26.1467 23.7714C26.4 23.114 26.5414 22.4113 26.5894 21.3713C26.6587 19.8993 26.6667 19.3847 26.6667 15.9993C26.6667 12.7007 26.6574 12.162 26.5894 10.6273C26.54 9.58468 26.4 8.88068 26.1467 8.23002C25.9457 7.68602 25.6255 7.19396 25.2094 6.79002C24.8063 6.37248 24.314 6.05157 23.7694 5.85135C23.116 5.59802 22.4147 5.45802 21.372 5.41002C19.9 5.34068 19.3854 5.33268 16 5.33268ZM16 2.66602C19.6227 2.66602 20.0747 2.67935 21.496 2.74602C22.916 2.81268 23.8827 3.03535 24.7334 3.36602C25.6134 3.70468 26.3547 4.16335 27.096 4.90335C27.774 5.56988 28.2986 6.37613 28.6334 7.26602C28.9627 8.11535 29.1867 9.08335 29.2534 10.5033C29.316 11.9247 29.3334 12.3767 29.3334 15.9993C29.3334 19.622 29.32 20.074 29.2534 21.4953C29.1867 22.9153 28.9627 23.882 28.6334 24.7327C28.2996 25.6231 27.7748 26.4295 27.096 27.0954C26.4293 27.7731 25.6231 28.2977 24.7334 28.6327C23.884 28.962 22.916 29.186 21.496 29.2527C20.0747 29.3153 19.6227 29.3327 16 29.3327C12.3774 29.3327 11.9254 29.3194 10.504 29.2527C9.08402 29.186 8.11735 28.962 7.26669 28.6327C6.37646 28.2986 5.57006 27.7739 4.90402 27.0954C4.2259 26.4289 3.70126 25.6226 3.36669 24.7327C3.03602 23.8833 2.81335 22.9153 2.74669 21.4953C2.68402 20.074 2.66669 19.622 2.66669 15.9993C2.66669 12.3767 2.68002 11.9247 2.74669 10.5033C2.81335 9.08202 3.03602 8.11668 3.36669 7.26602C3.70034 6.37559 4.22509 5.56911 4.90402 4.90335C5.57025 4.22499 6.37659 3.70032 7.26669 3.36602C8.11735 3.03535 9.08269 2.81268 10.504 2.74602C11.9254 2.68335 12.3774 2.66602 16 2.66602Z" fill="#5D1EBF"/>
</g>
<defs>
<clipPath id="clip0_1342_21514">
<rect width="32" height="32" fill="white"/>
</clipPath>
</defs>
</svg>
