<svg width="24" height="24" viewBox="0 0 24 24" fill="none" xmlns="http://www.w3.org/2000/svg">
<g clip-path="url(#clip0_847_11447)">
<path fill-rule="evenodd" clip-rule="evenodd" d="M17.5 8C17.5 8.67601 17.2137 9.84746 16.6425 11.3696C16.0908 12.8398 15.3364 14.476 14.5427 16.0106C13.7485 17.546 12.9322 18.9466 12.2666 19.9474C12.1729 20.0883 12.0839 20.2187 12 20.3384C11.9161 20.2187 11.8271 20.0883 11.7334 19.9474C11.0678 18.9466 10.2515 17.546 9.45733 16.0106C8.66356 14.476 7.90923 12.8398 7.3575 11.3696C6.7863 9.84746 6.5 8.67601 6.5 8C6.5 4.96243 8.96243 2.5 12 2.5C15.0376 2.5 17.5 4.96243 17.5 8ZM19 8C19 11.866 13 22.5 12 22.5C11 22.5 5 11.866 5 8C5 4.13401 8.13401 1 12 1C15.866 1 19 4.13401 19 8ZM12 12C14.2091 12 16 10.2091 16 8C16 5.79086 14.2091 4 12 4C9.79086 4 8 5.79086 8 8C8 10.2091 9.79086 12 12 12Z" fill="#020F00"/>
</g>
<defs>
<clipPath id="clip0_847_11447">
<rect width="24" height="24" fill="white"/>
</clipPath>
</defs>
</svg>
