<svg width="24" height="24" viewBox="0 0 24 24" fill="none" xmlns="http://www.w3.org/2000/svg">
<path fill-rule="evenodd" clip-rule="evenodd" d="M6.32239 9.48264C5.92046 9.48264 5.23666 9.02755 5.23666 7.99132C5.23666 6.95509 5.92046 6.5 6.32239 6.5C6.72433 6.5 7.40813 6.95509 7.40813 7.99132C7.40813 9.02755 6.72433 9.48264 6.32239 9.48264ZM6.32239 10.9826C4.89433 10.9826 3.73666 9.64338 3.73666 7.99132C3.73666 6.33926 4.89433 5 6.32239 5C7.75046 5 8.90813 6.33926 8.90813 7.99132C8.90813 9.64338 7.75046 10.9826 6.32239 10.9826ZM8.71632 12.1784C7.95627 11.8809 7.14301 11.7283 6.32261 11.7283C5.50221 11.7283 4.68894 11.8809 3.92889 12.1784C3.16879 12.4758 2.47548 12.9128 1.88956 13.4664C1.30355 14.02 0.83628 14.6796 0.516629 15.4087C0.196924 16.1379 0.0317383 16.9211 0.0317383 17.7131C0.0317383 18.1273 0.367524 18.4631 0.781738 18.4631C1.19595 18.4631 1.53174 18.1273 1.53174 17.7131C1.53174 17.1303 1.65319 16.552 1.89039 16.011C2.12765 15.4698 2.47666 14.9753 2.91968 14.5567C3.36279 14.1381 3.89112 13.8039 4.47553 13.5752C5.05997 13.3465 5.68773 13.2283 6.32261 13.2283C6.95748 13.2283 7.58524 13.3465 8.16969 13.5752C8.55542 13.7262 8.99048 13.5358 9.14143 13.1501C9.29238 12.7644 9.10205 12.3293 8.71632 12.1784ZM18.7629 7.99132C18.7629 9.02755 18.0791 9.48264 17.6771 9.48264C17.2752 9.48264 16.5914 9.02755 16.5914 7.99132C16.5914 6.95509 17.2752 6.5 17.6771 6.5C18.0791 6.5 18.7629 6.95509 18.7629 7.99132ZM20.2629 7.99132C20.2629 9.64338 19.1052 10.9826 17.6771 10.9826C16.2491 10.9826 15.0914 9.64338 15.0914 7.99132C15.0914 6.33926 16.2491 5 17.6771 5C19.1052 5 20.2629 6.33926 20.2629 7.99132ZM17.6769 11.7283C16.8565 11.7283 16.0432 11.8809 15.2832 12.1784C14.8975 12.3293 14.7071 12.7644 14.8581 13.1501C15.009 13.5358 15.4441 13.7262 15.8298 13.5752C16.4143 13.3465 17.042 13.2283 17.6769 13.2283C18.3118 13.2283 18.9395 13.3465 19.524 13.5752C20.1084 13.8039 20.6367 14.1381 21.0798 14.5567C21.5229 14.9753 21.8719 15.4698 22.1091 16.011C22.3463 16.552 22.4678 17.1303 22.4678 17.7131C22.4678 18.1273 22.8036 18.4631 23.2178 18.4631C23.632 18.4631 23.9678 18.1273 23.9678 17.7131C23.9678 16.9211 23.8026 16.1379 23.4829 15.4087C23.1632 14.6796 22.696 14.02 22.11 13.4664C21.524 12.9128 20.8307 12.4758 20.0706 12.1784C19.3106 11.8809 18.4973 11.7283 17.6769 11.7283ZM13.3186 9.48704C13.3186 10.5233 12.6348 10.9784 12.2328 10.9784C11.8309 10.9784 11.1471 10.5233 11.1471 9.48704C11.1471 8.45081 11.8309 7.99572 12.2328 7.99572C12.6348 7.99572 13.3186 8.45081 13.3186 9.48704ZM14.8186 9.48704C14.8186 11.1391 13.6609 12.4784 12.2328 12.4784C10.8048 12.4784 9.64708 11.1391 9.64708 9.48704C9.64708 7.83498 10.8048 6.49572 12.2328 6.49572C13.6609 6.49572 14.8186 7.83498 14.8186 9.48704ZM12.2328 13.224C11.4124 13.224 10.5991 13.3767 9.8391 13.6741C9.079 13.9715 8.38569 14.4085 7.79977 14.9621C7.21376 15.5157 6.74649 16.1753 6.42684 16.9044C6.10713 17.6336 5.94195 18.4168 5.94195 19.2089C5.94195 19.6231 6.27773 19.9588 6.69195 19.9588C7.10616 19.9588 7.44195 19.6231 7.44195 19.2088C7.44195 18.626 7.5634 18.0478 7.8006 17.5067C8.03786 16.9656 8.38687 16.471 8.82989 16.0525C9.273 15.6338 9.80133 15.2996 10.3857 15.0709C10.9702 14.8422 11.5979 14.724 12.2328 14.724C12.8677 14.724 13.4954 14.8422 14.0799 15.0709C14.6643 15.2996 15.1926 15.6338 15.6357 16.0525C16.0788 16.471 16.4278 16.9656 16.665 17.5067C16.9022 18.0478 17.0237 18.626 17.0237 19.2088C17.0237 19.6231 17.3595 19.9588 17.7737 19.9588C18.1879 19.9588 18.5237 19.6231 18.5237 19.2088C18.5237 18.4168 18.3585 17.6336 18.0388 16.9044C17.7191 16.1753 17.2519 15.5157 16.6659 14.9621C16.0799 14.4085 15.3866 13.9715 14.6265 13.6741C13.8665 13.3767 13.0532 13.224 12.2328 13.224Z" fill="#5D1EBF"/>
</svg>
