<svg width="24" height="24" viewBox="0 0 24 24" fill="none" xmlns="http://www.w3.org/2000/svg">
<g clip-path="url(#clip0_847_11438)">
<path fill-rule="evenodd" clip-rule="evenodd" d="M5.28477 6.15137C4.78771 6.15137 4.38477 6.55431 4.38477 7.05137C4.38477 7.54842 4.78771 7.95137 5.28477 7.95137H19.0999C19.597 7.95137 19.9999 7.54842 19.9999 7.05137C19.9999 6.55431 19.597 6.15137 19.0999 6.15137H5.28477ZM4.38477 12.0755C4.38477 11.5785 4.78771 11.1755 5.28477 11.1755H19.0999C19.597 11.1755 19.9999 11.5785 19.9999 12.0755C19.9999 12.5726 19.597 12.9755 19.0999 12.9755H5.28477C4.78771 12.9755 4.38477 12.5726 4.38477 12.0755ZM4.38477 17.1002C4.38477 16.6031 4.78771 16.2002 5.28477 16.2002H19.0999C19.597 16.2002 19.9999 16.6031 19.9999 17.1002C19.9999 17.5973 19.597 18.0002 19.0999 18.0002H5.28477C4.78771 18.0002 4.38477 17.5973 4.38477 17.1002Z" fill="#020F00"/>
</g>
<defs>
<clipPath id="clip0_847_11438">
<rect width="24" height="24" fill="white"/>
</clipPath>
</defs>
</svg>
