<svg width="24" height="24" viewBox="0 0 24 24" fill="none" xmlns="http://www.w3.org/2000/svg">
<g clip-path="url(#clip0_847_11532)">
<path fill-rule="evenodd" clip-rule="evenodd" d="M14.1962 1C16.2091 0.999041 18.1614 1.68837 19.7277 2.95303C21.2939 4.21768 22.3793 5.98121 22.8029 7.9495C23.2265 9.91778 22.9627 11.9718 22.0554 13.7691C21.1481 15.5663 19.6522 16.9981 17.8172 17.8256C17.2307 19.1227 16.3383 20.2581 15.2168 21.1345C14.0952 22.0108 12.7778 22.602 11.3777 22.8573C9.97753 23.1126 8.53636 23.0244 7.17777 22.6002C5.81918 22.1761 4.58372 21.4286 3.57735 20.422C2.57097 19.4154 1.82372 18.1797 1.39967 16.8207C0.975616 15.4618 0.887425 14.0203 1.14266 12.6198C1.39789 11.2193 1.98893 9.90164 2.86509 8.7798C3.74124 7.65795 4.87637 6.76541 6.17311 6.17873C6.87064 4.635 7.99858 3.32531 9.42165 2.40675C10.8447 1.48818 12.5025 0.99974 14.1962 1ZM9.79636 7.60131C8.92967 7.60131 8.07147 7.77206 7.27076 8.10381C6.47004 8.43555 5.7425 8.9218 5.12965 9.53479C4.51681 10.1478 4.03068 10.8755 3.69902 11.6764C3.36735 12.4773 3.19664 13.3357 3.19664 14.2026C3.19664 15.0695 3.36735 15.9279 3.69902 16.7288C4.03068 17.5297 4.51681 18.2575 5.12965 18.8705C5.7425 19.4834 6.47004 19.9697 7.27076 20.3014C8.07147 20.6332 8.92967 20.8039 9.79636 20.8039C11.5467 20.8039 13.2254 20.1084 14.4631 18.8705C15.7007 17.6325 16.3961 15.9534 16.3961 14.2026C16.3961 12.4518 15.7007 10.7728 14.4631 9.53479C13.2254 8.2968 11.5467 7.60131 9.79636 7.60131ZM14.1962 3.20044C13.2642 3.19935 12.3425 3.39621 11.4923 3.77801C10.642 4.15981 9.88252 4.71783 9.26398 5.41518C10.5072 5.33969 11.7523 5.52904 12.9169 5.97073C14.0816 6.41241 15.1392 7.09636 16.0198 7.97734C16.9005 8.85833 17.5842 9.91627 18.0256 11.0812C18.467 12.2462 18.6562 13.4916 18.5806 14.7351C19.5807 13.8457 20.2868 12.6733 20.6054 11.3732C20.924 10.0731 20.8399 8.70694 20.3643 7.45578C19.8887 6.20462 19.0441 5.12762 17.9425 4.36764C16.8409 3.60766 15.5344 3.20059 14.1962 3.20044ZM10.2717 19.3401V19.5142C10.2717 19.7351 10.0926 19.9142 9.87173 19.9142C9.65081 19.9142 9.47173 19.7351 9.47173 19.5142V18.3937C9.2303 18.3725 8.98757 18.337 8.74354 18.2871C8.32788 18.2005 7.92789 18.0786 7.5436 17.9212C7.35933 17.8403 7.18164 17.7518 7.01053 17.6559C6.70586 17.485 6.61441 17.1003 6.77333 16.7892L6.99955 16.3463C7.10546 16.139 7.39583 16.082 7.59065 16.2095C7.77104 16.3196 7.98671 16.4337 8.23768 16.5518C8.4965 16.662 8.77884 16.7564 9.08471 16.8351C9.21371 16.8675 9.34272 16.8932 9.47173 16.9122V14.8608C9.38445 14.8346 9.29465 14.808 9.20235 14.7811C8.66904 14.6315 8.22592 14.4663 7.87299 14.2853C7.52007 14.0964 7.25733 13.8603 7.08479 13.577C6.91225 13.2936 6.82598 12.9395 6.82598 12.5145C6.82598 11.94 6.96323 11.4599 7.23773 11.0743C7.51222 10.6808 7.88084 10.3857 8.34356 10.1889C8.69089 10.0354 9.06695 9.93941 9.47173 9.90111V9.06216C9.47173 8.84125 9.65081 8.66216 9.87173 8.66216C10.0926 8.66216 10.2717 8.84125 10.2717 9.06216V9.06513C10.2725 9.0752 10.2729 9.08537 10.2729 9.09563V9.89675C10.5224 9.91609 10.7616 9.95446 10.9905 10.0119C11.3434 10.0984 11.6728 10.2126 11.9787 10.3542C12.0836 10.4028 12.1848 10.4527 12.2823 10.5041C12.5866 10.6644 12.6772 11.0448 12.5132 11.3471L12.2658 11.8029C12.1754 11.9694 11.9387 12.0139 11.7787 11.9125C11.6375 11.818 11.4611 11.7275 11.2493 11.641C11.0454 11.5544 10.8219 11.4796 10.5788 11.4167C10.4771 11.387 10.3748 11.3636 10.2717 11.3464V13.4097C10.3183 13.422 10.3657 13.4345 10.4141 13.4471C10.9631 13.5809 11.4375 13.7462 11.8375 13.9429C12.2454 14.1318 12.5551 14.3836 12.7669 14.6984C12.9865 15.0054 13.0963 15.4146 13.0963 15.9261C13.0963 16.3747 13.0139 16.7604 12.8492 17.083C12.6846 17.3978 12.4571 17.6536 12.1669 17.8503C11.8767 18.0471 11.5434 18.1927 11.167 18.2871C10.8808 18.3543 10.5827 18.3955 10.2729 18.4105V19.3096C10.2729 19.3199 10.2725 19.33 10.2717 19.3401ZM10.2717 16.9446V15.1148C10.2919 15.1216 10.3119 15.1284 10.3317 15.1352C10.6611 15.2375 10.916 15.3595 11.0964 15.5012C11.2768 15.6428 11.367 15.8396 11.367 16.0914C11.367 16.3669 11.2532 16.5793 11.0258 16.7289C10.8429 16.8491 10.5915 16.921 10.2717 16.9446ZM9.47173 13.1783V11.3326C9.20838 11.3673 8.99703 11.4425 8.83766 11.5583C8.61806 11.7236 8.50826 11.9557 8.50826 12.2548C8.50826 12.483 8.57885 12.664 8.72002 12.7978C8.86119 12.9316 9.07294 13.0457 9.35528 13.1402C9.39285 13.1527 9.43166 13.1654 9.47173 13.1783Z" fill="#020F00"/>
</g>
<defs>
<clipPath id="clip0_847_11532">
<rect width="24" height="24" fill="white"/>
</clipPath>
</defs>
</svg>
