<svg width="24" height="24" viewBox="0 0 24 24" fill="none" xmlns="http://www.w3.org/2000/svg">
<path fill-rule="evenodd" clip-rule="evenodd" d="M10.2134 21.8151C10.1218 21.6197 10.1376 21.429 10.2238 21.2692C10.3581 21.0202 10.6635 20.8462 11 20.8462H13C13.3365 20.8462 13.6418 21.0202 13.7757 21.2692C13.8616 21.4289 13.877 21.6195 13.785 21.8147C13.4544 22.5163 12.7771 23 12 23C11.216 23 10.5418 22.5165 10.2134 21.8151ZM19.2267 19.7692H14.381H13H11H9.61883H4.77327C4.3462 19.7692 4 19.423 4 18.996C4 18.8008 4.07381 18.6128 4.20662 18.4698L5.73279 16.8262C5.90455 16.6413 6 16.3982 6 16.1458V12.6489C6.45287 12.8044 6.9388 12.8889 7.44444 12.8889C7.46299 12.8889 7.48151 12.8888 7.5 12.8885V16.1458C7.5 16.7768 7.26137 17.3845 6.83198 17.8469L6.43982 18.2692H17.5602L17.168 17.8469C16.7386 17.3845 16.5 16.7768 16.5 16.1458V11.1538C16.5 8.53515 15.3293 6.64616 13.6372 5.96702C12.778 5.62213 12 4.76881 12 3.61538C12 4.51334 11.5283 5.22973 10.9131 5.66539C10.5772 5.24668 10.167 4.89009 9.70259 4.61559C9.73608 4.60143 9.76979 4.58758 9.8037 4.57404C10.2038 4.41426 10.5 4.04622 10.5 3.61538C10.5 2.72154 11.17 2 12 2C12.83 2 13.5 2.72154 13.5 3.61538C13.5 4.0463 13.7961 4.41445 14.196 4.57497C16.6244 5.54971 18 8.12596 18 11.1538V16.1458C18 16.3982 18.0955 16.6413 18.2672 16.8262L19.7934 18.4698C19.9262 18.6128 20 18.8008 20 18.996C20 19.423 19.6538 19.7692 19.2267 19.7692Z" fill="#020F00"/>
<circle cx="7.44423" cy="8.44447" r="3.55556" fill="#5D1EBF"/>
</svg>
