<svg width="24" height="24" viewBox="0 0 24 24" fill="none" xmlns="http://www.w3.org/2000/svg">
<g clip-path="url(#clip0_847_11421)">
<path fill-rule="evenodd" clip-rule="evenodd" d="M13.5 8C13.5 9.57512 12.4227 10.5 11.5 10.5C10.5773 10.5 9.5 9.57512 9.5 8C9.5 6.42488 10.5773 5.5 11.5 5.5C12.4227 5.5 13.5 6.42488 13.5 8ZM15 8C15 10.2091 13.433 12 11.5 12C9.567 12 8 10.2091 8 8C8 5.79086 9.567 4 11.5 4C13.433 4 15 5.79086 15 8ZM11.5 13.25C10.4235 13.25 9.35648 13.4478 8.35943 13.8333C7.36233 14.2188 6.45314 14.785 5.68496 15.502C4.91668 16.219 4.30426 17.0731 3.88538 18.017C3.46643 18.961 3.25 19.9748 3.25 21C3.25 21.4142 3.58579 21.75 4 21.75C4.41421 21.75 4.75 21.4142 4.75 21C4.75 20.1867 4.92156 19.38 5.25643 18.6255C5.59137 17.8707 6.08384 17.1815 6.70844 16.5985C7.33314 16.0155 8.07753 15.5505 8.90032 15.2324C9.72315 14.9143 10.6067 14.75 11.5 14.75C12.3933 14.75 13.2768 14.9143 14.0997 15.2324C14.9225 15.5505 15.6669 16.0155 16.2916 16.5985C16.9162 17.1815 17.4086 17.8707 17.7436 18.6255C18.0784 19.38 18.25 20.1867 18.25 21C18.25 21.4142 18.5858 21.75 19 21.75C19.4142 21.75 19.75 21.4142 19.75 21C19.75 19.9748 19.5336 18.961 19.1146 18.017C18.6957 17.0731 18.0833 16.219 17.315 15.502C16.5469 14.785 15.6377 14.2188 14.6406 13.8333C13.6435 13.4478 12.5765 13.25 11.5 13.25Z" fill="#020F00"/>
</g>
<defs>
<clipPath id="clip0_847_11421">
<rect width="24" height="24" fill="white"/>
</clipPath>
</defs>
</svg>
