<svg width="24" height="24" viewBox="0 0 24 24" fill="none" xmlns="http://www.w3.org/2000/svg">
<path fill-rule="evenodd" clip-rule="evenodd" d="M8.97772 11.1053C8.97772 12.1863 8.25091 12.7106 7.76059 12.7106C7.27026 12.7106 6.54346 12.1863 6.54346 11.1053C6.54346 10.0243 7.27026 9.5 7.76059 9.5C8.25091 9.5 8.97772 10.0243 8.97772 11.1053ZM10.4777 11.1053C10.4777 12.8203 9.26122 14.2106 7.76059 14.2106C6.25996 14.2106 5.04346 12.8203 5.04346 11.1053C5.04346 9.39029 6.25996 8 7.76059 8C9.26122 8 10.4777 9.39029 10.4777 11.1053ZM7.76041 15.0134C6.90421 15.0134 6.05534 15.1708 5.26182 15.4775C4.46826 15.7843 3.74399 16.2352 3.1316 16.8068C2.51909 17.3784 2.03025 18.0599 1.69567 18.8138C1.36103 19.5679 1.18799 20.3781 1.18799 21.1977C1.18799 21.6119 1.52377 21.9477 1.93799 21.9477C2.3522 21.9477 2.68799 21.6119 2.68799 21.1977C2.68799 20.59 2.81615 19.9869 3.06672 19.4223C3.31735 18.8576 3.68625 18.3409 4.15507 17.9034C4.624 17.4657 5.18345 17.116 5.80271 16.8766C6.42201 16.6372 7.08738 16.5134 7.76041 16.5134C8.43344 16.5134 9.09881 16.6372 9.71811 16.8766C10.3374 17.116 10.8968 17.4657 11.3657 17.9034C11.8346 18.3409 12.2035 18.8576 12.4541 19.4223C12.7047 19.9869 12.8328 20.59 12.8328 21.1977C12.8328 21.6119 13.1686 21.9477 13.5828 21.9477C13.997 21.9477 14.3328 21.6119 14.3328 21.1977C14.3328 20.3781 14.1598 19.5679 13.8251 18.8138C13.4906 18.0599 13.0017 17.3784 12.3892 16.8068C11.7768 16.2352 11.0526 15.7843 10.259 15.4775C9.46548 15.1708 8.6166 15.0134 7.76041 15.0134Z" fill="#020F00"/>
<path d="M14.7421 10.7535C14.4119 10.7796 14.1201 10.519 14.1121 10.1879C14.1036 9.84155 14.0996 9.46628 14.1271 9.33241C14.1831 9.0904 14.283 8.86926 14.4269 8.66898C14.5707 8.46871 14.7746 8.28929 15.0384 8.13074C15.1503 8.05563 15.2942 7.96801 15.47 7.86787C15.6539 7.76773 15.8297 7.65508 15.9976 7.5299C16.1655 7.39638 16.3054 7.242 16.4173 7.06676C16.5372 6.88317 16.5971 6.67455 16.5971 6.44089C16.5971 6.20723 16.5412 6.01113 16.4293 5.85257C16.3253 5.69402 16.1855 5.57302 16.0096 5.48957C15.8417 5.40612 15.6579 5.3644 15.458 5.3644C15.2262 5.3644 15.0184 5.41864 14.8345 5.52712C14.6507 5.62726 14.4948 5.75243 14.3669 5.90264V5.90264C14.1716 6.132 13.8283 6.21108 13.5838 6.03507L13.4323 5.92598C13.1793 5.74383 13.0776 5.40497 13.2505 5.14553C13.3495 4.99697 13.4618 4.86131 13.5875 4.73853C13.8433 4.49652 14.1351 4.31293 14.4628 4.18776C14.7986 4.06259 15.1463 4 15.506 4C15.8098 4 16.1095 4.05007 16.4053 4.15021C16.701 4.242 16.9688 4.38804 17.2086 4.58832C17.4484 4.7886 17.6403 5.04312 17.7842 5.35188C17.9281 5.66064 18 6.03199 18 6.46593C18 6.73296 17.968 6.97079 17.9041 7.17942C17.8481 7.38804 17.7642 7.5758 17.6523 7.7427C17.5484 7.90125 17.4165 8.04729 17.2566 8.18081C17.0967 8.31433 16.9249 8.44367 16.741 8.56885C16.5332 8.70236 16.3213 8.83171 16.1055 8.95688C15.8977 9.08206 15.7218 9.23227 15.5779 9.40751C15.4977 9.50602 15.4537 9.87528 15.4311 10.2197C15.4106 10.5328 15.1419 10.7797 14.8292 10.7536V10.7536C14.8002 10.7512 14.771 10.7512 14.7421 10.7535V10.7535ZM14.7572 12.626C14.4057 12.626 14.1172 12.3476 14.1048 11.9962L14.1017 11.908C14.089 11.5504 14.3607 11.2437 14.7167 11.2071V11.2071C14.7622 11.2024 14.8086 11.2027 14.8541 11.208V11.208C15.171 11.2448 15.4101 11.5133 15.4101 11.8323V11.9731C15.4101 12.3337 15.1178 12.626 14.7572 12.626V12.626Z" fill="#020F00"/>
<path d="M11 14H22.7C22.8657 14 23 13.8657 23 13.7V2.3C23 2.13431 22.8657 2 22.7 2H8.3C8.13431 2 8 2.13431 8 2.3V6.5" stroke="#020F00" stroke-width="1.5" stroke-linecap="round"/>
</svg>
