<svg width="24" height="24" viewBox="0 0 24 24" fill="none" xmlns="http://www.w3.org/2000/svg">
<g clip-path="url(#clip0_847_11453)">
<path fill-rule="evenodd" clip-rule="evenodd" d="M16.2 10C16.2 12.8719 13.8719 15.2 11 15.2C8.12812 15.2 5.8 12.8719 5.8 10C5.8 7.12812 8.12812 4.8 11 4.8C13.8719 4.8 16.2 7.12812 16.2 10ZM14.8482 15.8482C13.7441 16.5763 12.4215 17 11 17C7.13401 17 4 13.866 4 10C4 6.13401 7.13401 3 11 3C14.866 3 18 6.13401 18 10C18 11.7221 17.3781 13.299 16.3467 14.5183L20.7071 18.8787C21.0976 19.2692 21.0976 19.9024 20.7071 20.2929C20.3166 20.6834 19.6834 20.6834 19.2929 20.2929L14.8482 15.8482Z" fill="#020F00"/>
</g>
<defs>
<clipPath id="clip0_847_11453">
<rect width="24" height="24" fill="white"/>
</clipPath>
</defs>
</svg>
