<svg width="32" height="32" viewBox="0 0 32 32" fill="none" xmlns="http://www.w3.org/2000/svg">
<g clip-path="url(#clip0_1342_21519)">
<path d="M20.4 7.4008C19.3866 7.40063 18.4137 7.7983 17.6905 8.50823C16.9674 9.21815 16.5518 10.1836 16.5333 11.1968L16.496 13.2968C16.4938 13.4096 16.4678 13.5206 16.4197 13.6226C16.3716 13.7246 16.3025 13.8152 16.2168 13.8886C16.1312 13.962 16.0311 14.0165 15.9229 14.0485C15.8148 14.0805 15.7011 14.0892 15.5893 14.0741L13.508 13.7915C10.7693 13.4181 8.14532 12.1568 5.62799 10.0595C4.83065 14.4728 6.38799 17.5301 10.1387 19.8888L12.468 21.3528C12.5787 21.4224 12.6706 21.518 12.7358 21.6313C12.801 21.7446 12.8374 21.8721 12.8418 22.0028C12.8463 22.1334 12.8187 22.2632 12.7614 22.3807C12.7042 22.4982 12.619 22.5998 12.5133 22.6768L10.3907 24.2275C11.6533 24.3061 12.852 24.2501 13.8467 24.0528C20.1373 22.7968 24.32 18.0635 24.32 10.2555C24.32 9.61814 22.9707 7.4008 20.4 7.4008ZM13.8667 11.1475C13.8899 9.8622 14.2918 8.61236 15.0221 7.55443C15.7523 6.4965 16.7784 5.6775 17.9719 5.19996C19.1654 4.72242 20.4732 4.60758 21.7316 4.8698C22.9901 5.13202 24.1432 5.75966 25.0466 6.67414C25.9946 6.66747 26.8013 6.90747 28.6053 5.81414C28.1587 8.0008 27.9387 8.95014 26.9867 10.2555C26.9867 20.4448 20.724 25.3995 14.3693 26.6675C10.012 27.5368 3.67599 26.1088 1.85999 24.2128C2.78532 24.1408 6.54532 23.7368 8.71865 22.1461C6.87999 20.9341 -0.438681 16.6275 4.37065 5.0488C6.62799 7.6848 8.91732 9.47947 11.2373 10.4315C12.7813 11.0648 13.16 11.0515 13.868 11.1488L13.8667 11.1475Z" fill="#5D1EBF"/>
</g>
<defs>
<clipPath id="clip0_1342_21519">
<rect width="32" height="32" fill="white"/>
</clipPath>
</defs>
</svg>
