<svg width="60" height="60" viewBox="0 0 60 60" fill="none" xmlns="http://www.w3.org/2000/svg">
<circle cx="30" cy="30" r="29.7541" fill="#F3EFFB" stroke="#E0E2E0" stroke-width="0.491803"/>
<mask id="mask0_2273_31817" style="mask-type:alpha" maskUnits="userSpaceOnUse" x="10" y="10" width="40" height="40">
<rect x="10.3281" y="10.3279" width="39.3443" height="39.3443" fill="#D9D9D9"/>
</mask>
<g mask="url(#mask0_2273_31817)">
<path d="M11.5576 39.8361C11.2024 39.8361 10.9087 39.72 10.6765 39.4877C10.4442 39.2555 10.3281 38.9618 10.3281 38.6066V37.6639C10.3281 36.5984 10.8951 35.7377 12.0289 35.082C13.1628 34.4262 14.6451 34.0984 16.4757 34.0984C16.8035 34.0984 17.1246 34.1052 17.4388 34.1189C17.753 34.1325 18.0604 34.1667 18.3609 34.2213C18.1423 34.6858 17.9784 35.1639 17.8691 35.6557C17.7598 36.1475 17.7052 36.6667 17.7052 37.2131V39.8361H11.5576ZM21.3937 39.8361C21.0385 39.8361 20.7448 39.72 20.5126 39.4877C20.2803 39.2555 20.1642 38.9618 20.1642 38.6066V37.2131C20.1642 35.4372 21.0727 33.9959 22.8896 32.8893C24.7065 31.7828 27.0768 31.2295 30.0003 31.2295C32.9511 31.2295 35.3281 31.7828 37.1314 32.8893C38.9347 33.9959 39.8363 35.4372 39.8363 37.2131V38.6066C39.8363 38.9618 39.7202 39.2555 39.488 39.4877C39.2557 39.72 38.962 39.8361 38.6068 39.8361H21.3937ZM42.2953 39.8361V37.2131C42.2953 36.6667 42.2407 36.1475 42.1314 35.6557C42.0221 35.1639 41.8582 34.6858 41.6396 34.2213C41.9401 34.1667 42.2475 34.1325 42.5617 34.1189C42.8759 34.1052 43.197 34.0984 43.5248 34.0984C45.3554 34.0984 46.8377 34.4262 47.9716 35.082C49.1054 35.7377 49.6724 36.5984 49.6724 37.6639V38.6066C49.6724 38.9618 49.5563 39.2555 49.324 39.4877C49.0918 39.72 48.7981 39.8361 48.4429 39.8361H42.2953ZM30.0003 33.6885C27.7871 33.6885 26.0044 34.0232 24.6519 34.6926C23.2994 35.362 22.6232 36.2022 22.6232 37.2131V37.3771H37.3773V37.1721C37.3773 36.1885 36.7011 35.362 35.3486 34.6926C33.9962 34.0232 32.2134 33.6885 30.0003 33.6885ZM16.4757 32.8689C15.6833 32.8689 15.0071 32.5888 14.447 32.0287C13.8869 31.4686 13.6068 30.7924 13.6068 30C13.6068 29.2077 13.8869 28.5314 14.447 27.9713C15.0071 27.4112 15.6833 27.1312 16.4757 27.1312C17.268 27.1312 17.9442 27.4112 18.5044 27.9713C19.0645 28.5314 19.3445 29.2077 19.3445 30C19.3445 30.7924 19.0645 31.4686 18.5044 32.0287C17.9442 32.5888 17.268 32.8689 16.4757 32.8689ZM43.5248 32.8689C42.7325 32.8689 42.0563 32.5888 41.4962 32.0287C40.936 31.4686 40.656 30.7924 40.656 30C40.656 29.2077 40.936 28.5314 41.4962 27.9713C42.0563 27.4112 42.7325 27.1312 43.5248 27.1312C44.3172 27.1312 44.9934 27.4112 45.5535 27.9713C46.1136 28.5314 46.3937 29.2077 46.3937 30C46.3937 30.7924 46.1136 31.4686 45.5535 32.0287C44.9934 32.5888 44.3172 32.8689 43.5248 32.8689ZM30.0003 30C28.6341 30 27.4729 29.5219 26.5166 28.5656C25.5604 27.6093 25.0822 26.4481 25.0822 25.082C25.0822 23.7159 25.5604 22.5547 26.5166 21.5984C27.4729 20.6421 28.6341 20.1639 30.0003 20.1639C31.3664 20.1639 32.5276 20.6421 33.4839 21.5984C34.4401 22.5547 34.9183 23.7159 34.9183 25.082C34.9183 26.4481 34.4401 27.6093 33.4839 28.5656C32.5276 29.5219 31.3664 30 30.0003 30ZM30.0003 22.623C29.3172 22.623 28.7366 22.8552 28.2585 23.3197C27.7803 23.7842 27.5412 24.3716 27.5412 25.082C27.5412 25.765 27.7803 26.3456 28.2585 26.8238C28.7366 27.3019 29.3172 27.541 30.0003 27.541C30.7106 27.541 31.2981 27.3019 31.7626 26.8238C32.227 26.3456 32.4593 25.765 32.4593 25.082C32.4593 24.3716 32.227 23.7842 31.7626 23.3197C31.2981 22.8552 30.7106 22.623 30.0003 22.623Z" fill="#8658CE"/>
</g>
</svg>
