<svg width="60" height="60" viewBox="0 0 60 60" fill="none" xmlns="http://www.w3.org/2000/svg">
<circle cx="30" cy="30" r="29.7541" fill="#F3EFFB" stroke="#E0E2E0" stroke-width="0.491803"/>
<mask id="mask0_2273_31835" style="mask-type:alpha" maskUnits="userSpaceOnUse" x="10" y="10" width="40" height="40">
<rect x="10.3281" y="10.3279" width="39.3443" height="39.3443" fill="#D9D9D9"/>
</mask>
<g mask="url(#mask0_2273_31835)">
<path d="M45.4107 47.1311L40.7796 42.541C40.2058 42.9508 39.5842 43.265 38.9148 43.4836C38.2454 43.7022 37.5555 43.8115 36.8452 43.8115C34.9053 43.8115 33.2591 43.1352 31.9066 41.7828C30.5542 40.4303 29.8779 38.7841 29.8779 36.8443C29.8779 34.9044 30.5542 33.2582 31.9066 31.9057C33.2591 30.5533 34.9053 29.877 36.8452 29.877C38.785 29.877 40.4312 30.5533 41.7837 31.9057C43.1361 33.2582 43.8124 34.9044 43.8124 36.8443C43.8124 37.5546 43.6962 38.2445 43.464 38.9139C43.2318 39.5833 42.9244 40.2186 42.5419 40.8197L47.132 45.4098C47.3779 45.6557 47.5077 45.9426 47.5214 46.2705C47.535 46.5984 47.4189 46.8852 47.173 47.1311C46.9271 47.377 46.6334 47.5 46.2919 47.5C45.9503 47.5 45.6566 47.377 45.4107 47.1311ZM36.8452 41.3525C38.102 41.3525 39.1676 40.9153 40.0419 40.041C40.9162 39.1667 41.3534 38.1011 41.3534 36.8443C41.3534 35.5874 40.9162 34.5219 40.0419 33.6475C39.1676 32.7732 38.102 32.3361 36.8452 32.3361C35.5883 32.3361 34.5228 32.7732 33.6484 33.6475C32.7741 34.5219 32.337 35.5874 32.337 36.8443C32.337 38.1011 32.7741 39.1667 33.6484 40.041C34.5228 40.9153 35.5883 41.3525 36.8452 41.3525ZM12.9107 38.6885C12.6375 38.4973 12.4736 38.2377 12.4189 37.9098C12.3643 37.582 12.4189 37.2814 12.5829 37.0082L18.7714 27.1311C18.99 26.776 19.311 26.5847 19.7345 26.5574C20.158 26.5301 20.5064 26.6667 20.7796 26.9672L24.5911 31.4344L30.1238 22.5C30.3424 22.1175 30.6771 21.9194 31.1279 21.9057C31.5788 21.8921 31.9271 22.0765 32.173 22.459L35.5747 27.5C35.1375 27.5546 34.714 27.6434 34.3042 27.7664C33.8943 27.8893 33.4845 28.0328 33.0747 28.1967L31.2304 25.3688L25.8616 34.1393C25.643 34.4945 25.3219 34.6858 24.8984 34.7131C24.4749 34.7404 24.1266 34.6038 23.8534 34.3033L20.0009 29.7951L14.673 38.3197C14.4818 38.6202 14.2154 38.8115 13.8738 38.8934C13.5323 38.9754 13.2113 38.9071 12.9107 38.6885ZM39.8779 27.9098C39.4681 27.7459 39.0446 27.6366 38.6075 27.582C38.1703 27.5273 37.7195 27.4727 37.255 27.418L45.3288 14.7131C45.52 14.4126 45.7864 14.2281 46.1279 14.1598C46.4695 14.0915 46.7905 14.1667 47.0911 14.3852C47.3643 14.5765 47.535 14.8361 47.6034 15.1639C47.6717 15.4918 47.6102 15.7923 47.4189 16.0656L39.8779 27.9098Z" fill="#5D1EBF"/>
</g>
</svg>
