<svg width="60" height="60" viewBox="0 0 60 60" fill="none" xmlns="http://www.w3.org/2000/svg">
<circle cx="30" cy="30" r="29.7541" fill="#F3EFFB" stroke="#E0E2E0" stroke-width="0.491803"/>
<mask id="mask0_2273_31826" style="mask-type:alpha" maskUnits="userSpaceOnUse" x="10" y="10" width="40" height="40">
<rect x="10.3281" y="10.3279" width="39.3443" height="39.3443" fill="#D9D9D9"/>
</mask>
<g mask="url(#mask0_2273_31826)">
<path d="M16.0645 43.1148C15.4087 43.1148 14.835 42.8689 14.3432 42.3771C13.8514 41.8853 13.6055 41.3115 13.6055 40.6557V34.3853C14.6164 34.1667 15.4566 33.6407 16.126 32.8074C16.7954 31.9741 17.1301 31.0383 17.1301 30C17.1301 28.9618 16.7954 28.0191 16.126 27.1721C15.4566 26.3251 14.6164 25.806 13.6055 25.6148V19.3443C13.6055 18.6885 13.8514 18.1148 14.3432 17.623C14.835 17.1312 15.4087 16.8853 16.0645 16.8853H43.9333C44.5891 16.8853 45.1628 17.1312 45.6546 17.623C46.1465 18.1148 46.3924 18.6885 46.3924 19.3443V25.6148C45.3814 25.806 44.5481 26.3251 43.8924 27.1721C43.2366 28.0191 42.9087 28.9618 42.9087 30C42.9087 31.0383 43.2366 31.9741 43.8924 32.8074C44.5481 33.6407 45.3814 34.1667 46.3924 34.3853V40.6557C46.3924 41.3115 46.1465 41.8853 45.6546 42.3771C45.1628 42.8689 44.5891 43.1148 43.9333 43.1148H16.0645ZM16.0645 40.6557H43.9333V36.1885C42.9497 35.5055 42.1232 34.6243 41.4538 33.5451C40.7844 32.4659 40.4497 31.2842 40.4497 30C40.4497 28.7159 40.7844 27.5342 41.4538 26.4549C42.1232 25.3757 42.9497 24.4945 43.9333 23.8115V19.3443H16.0645V23.8115C17.0481 24.4945 17.8814 25.3757 18.5645 26.4549C19.2475 27.5342 19.5891 28.7159 19.5891 30C19.5891 31.2842 19.2475 32.4659 18.5645 33.5451C17.8814 34.6243 17.0481 35.5055 16.0645 36.1885V40.6557ZM29.9989 33.3197L32.7038 35.4508C32.9224 35.6694 33.1683 35.6831 33.4415 35.4918C33.7148 35.3006 33.7967 35.0547 33.6874 34.7541L32.6219 31.3935L35.3268 29.1394C35.5454 28.9481 35.6137 28.7159 35.5317 28.4426C35.4497 28.1694 35.2585 28.0328 34.9579 28.0328H31.7202L30.5727 24.7131C30.4634 24.4399 30.2721 24.3033 29.9989 24.3033C29.7257 24.3033 29.5344 24.4399 29.4251 24.7131L28.2776 28.0328H25.0399C24.7393 28.0328 24.5481 28.1694 24.4661 28.4426C24.3842 28.7159 24.4525 28.9481 24.671 29.1394L27.376 31.3935L26.3104 34.7541C26.2011 35.0547 26.2831 35.3006 26.5563 35.4918C26.8295 35.6831 27.0754 35.6694 27.294 35.4508L29.9989 33.3197Z" fill="#8658CE"/>
</g>
</svg>
